<?xml version="1.0" standalone="no"?>
<!DOCTYPE svg PUBLIC "-//W3C//DTD SVG 20010904//EN"
 "http://www.w3.org/TR/2001/REC-SVG-20010904/DTD/svg10.dtd">
<svg version="1.0" xmlns="http://www.w3.org/2000/svg"
 width="411.000000pt" height="411.000000pt" viewBox="0 0 411.000000 411.000000"
 preserveAspectRatio="xMidYMid meet">
<metadata>
Created by potrace 1.11, written by Peter Selinger 2001-2013
</metadata>
<g transform="translate(0.000000,411.000000) scale(0.100000,-0.100000)"
fill="#000000" stroke="none">
<path d="M1768 3126 c-67 -28 -143 -79 -165 -113 -16 -25 -16 -26 6 -44 13
-11 29 -19 37 -19 19 0 18 -6 -8 -40 -19 -26 -21 -41 -20 -117 3 -129 -4 -121
114 -120 l102 2 7 33 c11 53 4 189 -10 206 -21 25 -3 35 57 33 l57 -2 2 -302
1 -303 -21 -1 c-92 -6 -136 10 -101 35 17 13 19 26 18 130 0 64 -3 119 -6 122
-3 3 -44 6 -89 6 -139 1 -126 9 -129 -79 -6 -170 -5 -178 36 -193 15 -6 25
-12 23 -14 -2 -2 -41 -6 -87 -8 -102 -6 -120 -18 -103 -71 37 -110 209 -241
384 -292 217 -63 588 28 575 142 -3 31 -38 44 -63 23 -12 -10 -12 -5 -3 27 13
48 5 156 -14 185 -26 40 -21 43 67 43 58 0 85 -3 85 -11 0 -7 -7 -14 -15 -17
-21 -9 -32 -64 -24 -125 8 -57 22 -82 47 -82 25 0 107 92 138 156 29 59 29 59
29 249 -1 175 -3 194 -23 239 -70 154 -214 288 -354 330 -42 12 -198 22 -198
12 0 -2 33 -12 73 -21 290 -65 486 -308 472 -583 -5 -91 -32 -186 -76 -261
-27 -46 -33 -52 -41 -37 -7 12 -5 33 7 69 22 68 25 81 16 96 -11 17 -59 27
-116 25 -27 -1 -69 -2 -92 -3 -29 -1 -50 -8 -64 -22 -24 -24 -19 -48 17 -84
24 -25 29 -43 25 -105 -5 -68 -52 -80 -69 -18 -13 46 -7 354 7 401 15 46 51
68 77 46 10 -8 32 -46 50 -85 66 -145 110 -92 109 130 l0 69 -85 6 c-201 13
-228 5 -291 -82 -46 -63 -61 -127 -65 -265 -3 -106 0 -132 18 -180 36 -96 104
-192 127 -178 13 8 22 -9 15 -27 -20 -52 -204 -55 -365 -7 -36 11 -99 41 -140
68 -77 51 -179 138 -179 152 0 12 66 30 108 30 73 0 86 35 43 116 -27 49 -31
191 -6 200 26 10 84 -6 95 -26 19 -35 14 -126 -8 -162 -30 -48 -34 -84 -13
-109 15 -18 29 -21 104 -23 48 -2 97 2 109 8 35 18 45 68 22 118 -17 37 -19
68 -19 248 0 193 1 207 22 248 22 42 22 43 4 61 -24 24 -110 36 -185 27 -78
-10 -85 -23 -52 -95 38 -85 37 -169 -2 -172 -36 -3 -66 1 -75 10 -19 19 -17
127 4 165 24 46 24 73 -1 88 -29 19 -25 30 23 59 60 38 137 69 220 90 l72 17
-97 0 c-75 0 -108 -5 -150 -22z m626 -422 c37 -15 50 -16 53 -6 12 33 23 -8
22 -81 l-1 -82 -17 48 c-43 125 -175 166 -213 67 -30 -78 -28 -455 3 -512 26
-49 -32 -17 -70 38 -32 47 -41 89 -41 199 1 187 22 271 83 328 27 25 36 28 81
24 28 -2 73 -13 100 -23z"/>
<path d="M1466 2845 c-49 -50 -70 -153 -64 -310 4 -84 10 -121 22 -140 34 -52
96 -52 124 -1 14 26 17 58 15 216 -2 218 -7 244 -50 248 -18 2 -37 -3 -47 -13z
m15 -285 c1 -72 -2 -134 -4 -137 -11 -10 -27 74 -27 137 0 62 16 147 26 137 3
-2 5 -64 5 -137z m45 60 c0 -22 -3 -40 -7 -40 -3 0 -6 18 -6 40 0 22 3 40 7
40 3 0 6 -18 6 -40z"/>
<path d="M4 1781 c-2 -2 -4 -186 -4 -408 l0 -403 215 0 215 0 0 408 0 407
-211 0 c-116 0 -213 -2 -215 -4z m139 -40 c4 -1 7 -55 7 -122 0 -66 5 -129 10
-140 12 -21 55 -26 67 -6 4 6 8 66 9 133 1 67 4 125 7 130 3 5 36 9 74 9 l68
0 2 -378 1 -378 -75 3 -75 3 -3 165 c-2 173 -7 200 -34 200 -43 -1 -46 -11
-49 -195 l-4 -176 -61 3 -62 3 -2 372 -3 372 23 3 c19 3 74 2 100 -1z"/>
<path d="M2078 1780 c-88 -16 -93 -37 -93 -410 0 -337 5 -371 53 -388 15 -5
110 -10 210 -11 l182 -2 0 215 0 216 -89 0 c-49 0 -96 3 -105 6 -18 7 -23 63
-6 65 6 1 15 3 20 4 6 1 48 3 95 4 l86 1 -2 110 c-2 127 -18 166 -79 187 -37
13 -208 15 -272 3z m259 -51 c36 -11 45 -35 49 -119 3 -73 -7 -90 -54 -90 -49
0 -70 17 -76 60 -7 57 -16 70 -46 70 -34 0 -36 -3 -45 -58 -7 -50 -9 -428 -1
-457 2 -11 5 -23 5 -27 2 -17 33 -36 51 -31 40 11 55 142 20 186 -22 28 -26
72 -7 84 6 4 45 8 85 9 l73 2 -1 -147 c-1 -80 -6 -163 -11 -184 l-10 -38 -34
21 -35 22 -60 -21 c-67 -23 -103 -26 -147 -11 -56 20 -67 75 -67 335 1 242 5
315 21 354 7 19 16 37 18 40 19 18 215 19 272 0z m-130 -201 c-2 -13 -4 -5 -4
17 -1 22 1 32 4 23 2 -10 2 -28 0 -40z m-20 -225 c-3 -10 -5 -2 -5 17 0 19 2
27 5 18 2 -10 2 -26 0 -35z m20 -140 c-3 -10 -5 -4 -5 12 0 17 2 24 5 18 2 -7
2 -21 0 -30z"/>
<path d="M2535 1780 l-70 -5 -1 -55 c-1 -30 -5 -211 -8 -402 l-5 -348 109 0
110 0 0 408 0 408 -32 -1 c-18 0 -64 -2 -103 -5z m70 -39 c20 -1 20 -7 20
-373 l0 -373 -52 -3 -53 -3 0 375 c0 393 -1 385 45 380 11 -1 29 -3 40 -3z"/>
<path d="M3120 1377 l0 -409 175 3 c121 3 178 8 186 16 20 20 27 112 24 343
-1 170 -5 223 -17 251 -20 46 -30 52 -101 60 -32 4 -61 9 -63 12 -3 3 -7 29
-10 58 -2 29 -9 58 -14 63 -5 5 -48 10 -95 11 l-85 2 0 -410z m141 352 c5 -8
9 -39 9 -69 0 -71 9 -80 66 -68 112 24 127 -9 127 -292 0 -238 -6 -274 -49
-290 -29 -11 -243 -21 -245 -11 -1 3 -3 173 -4 376 l-2 370 45 -1 c26 0 47 -6
53 -15z"/>
<path d="M3296 1501 c-17 -27 -30 -383 -15 -412 10 -19 56 -22 66 -5 11 17 5
343 -7 387 -10 36 -31 51 -44 30z"/>
<path d="M3960 1379 l0 -409 54 0 c31 0 58 5 62 12 4 6 3 8 -3 5 -6 -4 -24 -4
-40 -1 l-30 6 0 374 c0 206 3 374 6 375 3 0 23 2 45 4 42 3 65 18 46 30 -6 4
-40 9 -76 10 l-64 4 0 -410z"/>
<path d="M598 1639 c-112 -9 -141 -41 -145 -161 -3 -91 4 -99 79 -100 l53 0
-32 -28 c-17 -15 -37 -32 -45 -36 -7 -5 -23 -22 -35 -37 -20 -26 -22 -38 -19
-148 2 -97 6 -123 20 -137 14 -15 41 -17 204 -17 l187 0 -3 120 c-11 523 -14
532 -142 545 -30 3 -85 2 -122 -1z m175 -67 c20 -20 21 -33 22 -296 1 -187 -2
-277 -9 -279 -13 -5 -168 1 -210 7 -16 3 -40 16 -53 29 -21 21 -24 33 -25 98
-1 98 16 129 95 178 34 22 75 51 90 65 25 23 28 31 23 69 -12 89 -106 108
-106 21 0 -35 -13 -44 -61 -44 -34 0 -49 27 -42 75 7 43 20 63 56 86 27 17 44
20 116 16 67 -4 87 -9 104 -25z"/>
<path d="M631 1240 c-32 -19 -35 -155 -4 -177 22 -17 27 -16 52 5 27 22 38
100 21 142 -7 17 -15 30 -19 31 -3 0 -13 2 -22 4 -9 1 -22 -1 -28 -5z"/>
<path d="M1517 1644 c-1 -1 -27 -3 -57 -5 -107 -5 -141 -40 -146 -153 -4 -93
4 -106 74 -107 28 -1 52 -5 52 -8 0 -4 -18 -18 -40 -33 -77 -50 -85 -68 -85
-198 1 -71 5 -123 13 -137 16 -28 73 -35 257 -31 l140 3 -3 150 c-7 395 -18
478 -69 500 -17 8 -131 23 -136 19z m96 -64 c35 -28 40 -63 42 -340 l2 -246
-119 2 c-136 2 -165 12 -173 58 -6 31 -9 110 -6 153 2 33 45 78 109 114 31 18
65 42 75 52 21 25 22 78 1 118 -12 24 -21 30 -42 27 -22 -2 -29 -10 -37 -43
-11 -47 -19 -55 -62 -55 -38 0 -45 10 -45 62 1 80 52 117 163 118 51 0 72 -4
92 -20z"/>
<path d="M1484 1225 c-25 -38 -24 -143 1 -161 23 -17 27 -17 48 -1 22 16 30
102 14 147 -15 44 -40 49 -63 15z"/>
<path d="M3673 1640 c-57 -4 -76 -10 -96 -29 -28 -25 -49 -99 -43 -146 2 -16
4 -35 5 -42 2 -23 31 -41 75 -47 l46 -7 -42 -32 c-78 -60 -83 -73 -83 -209 0
-163 -11 -155 226 -157 l181 -2 -5 273 c-6 326 -10 352 -60 380 -30 16 -116
24 -204 18z m175 -63 c32 -29 41 -111 45 -407 l2 -175 -126 2 c-70 0 -136 6
-147 12 -29 16 -56 103 -48 159 8 60 42 102 132 162 41 28 75 56 75 63 4 31
-4 93 -13 105 -23 28 -88 0 -88 -38 0 -26 -21 -40 -61 -40 -43 0 -50 14 -37
70 25 100 41 111 164 107 63 -1 87 -6 102 -20z m-108 -136 c0 -27 -11 -52 -19
-46 -10 6 -1 65 10 65 5 0 9 -9 9 -19z"/>
<path d="M3722 1250 c-29 -12 -42 -48 -42 -115 0 -43 4 -57 21 -68 27 -19 58
-10 70 20 16 44 16 153 -1 163 -18 11 -18 11 -48 0z m15 -122 c-2 -13 -4 -3
-4 22 0 25 2 35 4 23 2 -13 2 -33 0 -45z"/>
<path d="M913 1632 c-23 -3 -23 -5 -24 -165 0 -89 -2 -237 -5 -329 l-4 -168
99 0 c87 0 98 2 98 18 0 139 4 354 7 351 2 -2 7 -80 9 -174 3 -93 6 -176 6
-182 1 -10 27 -13 97 -13 l96 0 -4 278 c-5 306 -12 347 -61 370 -25 12 -255
22 -314 14z m237 -48 c58 -11 68 -20 75 -72 3 -26 8 -60 10 -77 2 -16 7 -123
11 -237 l7 -207 -57 0 -56 0 0 82 c-2 244 -11 405 -26 429 -9 15 -52 8 -59 -9
-11 -29 -16 -138 -24 -471 l-1 -33 -52 3 -52 3 -1 285 c0 157 1 293 4 303 3
16 12 18 95 12 50 -3 107 -8 126 -11z"/>
<path d="M2758 1629 c-15 -6 -34 -26 -45 -47 -16 -33 -18 -65 -18 -304 0 -243
2 -269 18 -285 18 -18 74 -21 303 -14 l51 1 13 58 c15 65 20 320 9 434 -9 96
-31 143 -71 157 -38 13 -223 13 -260 0z m242 -57 c10 -12 22 -46 25 -75 8 -60
2 -483 -6 -492 -3 -3 -49 -7 -101 -9 -176 -6 -182 4 -182 299 0 290 10 307
162 303 73 -3 86 -6 102 -26z"/>
<path d="M2850 1494 c-16 -41 -8 -407 9 -427 18 -23 44 -21 66 3 17 18 19 41
21 178 2 172 -6 249 -27 263 -28 18 -59 10 -69 -17z"/>
</g>
</svg>
