<?xml version="1.0" encoding="UTF-8" standalone="no"?>
<!-- Created with Inkscape (http://www.inkscape.org/) -->

<svg
   xmlns:dc="http://purl.org/dc/elements/1.1/"
   xmlns:cc="http://creativecommons.org/ns#"
   xmlns:rdf="http://www.w3.org/1999/02/22-rdf-syntax-ns#"
   xmlns:svg="http://www.w3.org/2000/svg"
   xmlns="http://www.w3.org/2000/svg"
   xmlns:sodipodi="http://sodipodi.sourceforge.net/DTD/sodipodi-0.dtd"
   xmlns:inkscape="http://www.inkscape.org/namespaces/inkscape"
   id="svg4164"
   version="1.1"
   inkscape:version="0.91 r13725"
   width="558"
   height="558"
   viewBox="0 0 558 558"
   sodipodi:docname="hanaglobal.svg">
  <metadata
     id="metadata4170">
    <rdf:RDF>
      <cc:Work
         rdf:about="">
        <dc:format>image/svg+xml</dc:format>
        <dc:type
           rdf:resource="http://purl.org/dc/dcmitype/StillImage" />
        <dc:title></dc:title>
      </cc:Work>
    </rdf:RDF>
  </metadata>
  <defs
     id="defs4168" />
  <sodipodi:namedview
     pagecolor="#ffffff"
     bordercolor="#666666"
     borderopacity="1"
     objecttolerance="10"
     gridtolerance="10"
     guidetolerance="10"
     inkscape:pageopacity="0"
     inkscape:pageshadow="2"
     inkscape:window-width="1366"
     inkscape:window-height="705"
     id="namedview4166"
     showgrid="false"
     inkscape:zoom="0.42293907"
     inkscape:cx="279"
     inkscape:cy="279"
     inkscape:window-x="-8"
     inkscape:window-y="-8"
     inkscape:window-maximized="1"
     inkscape:current-layer="svg4164" />
  <path
     style="fill:#000000"
     d="m 9.5000029,282.16924 0,-62.42563 28.6846761,0 28.684667,0 0,62.42563 0,62.42562 -28.684667,0 -28.6846761,0 0,-62.42562 z M 30.2863,313.38206 c 0.544724,-24.97101 0.9696,-27.54072 4.553441,-27.54072 5.606459,0 6.532118,4.55726 6.532118,32.15919 l 0,24.41454 10.09276,-0.74615 10.092751,-0.74615 0,-57.52949 0,-57.52951 -10.092751,-0.74613 -10.09276,-0.74615 -0.0325,19.10663 c -0.03501,20.52869 -1.853501,26.79556 -7.102235,24.475 -2.559014,-1.13138 -3.455058,-6.09299 -3.932841,-21.77726 l -0.61876,-20.31209 -9.030367,-0.75277 -9.030357,-0.75278 0,57.26227 c 0,31.49421 0.682952,58.04907 1.517656,59.01079 0.834704,0.9617 4.898365,1.42072 9.030357,1.02001 l 7.512711,-0.72852 0.600787,-27.54071 z m 45.613413,28.68846 c -4.429318,-2.05125 -4.780785,-3.7355 -4.780785,-22.91066 l 0,-20.69668 8.881626,-8.75898 8.881626,-8.75898 -8.881626,0 -8.881626,0 0,-14.68839 c 0,-21.42653 3.307414,-24.48064 26.510902,-24.48064 25.25365,0 25.11226,-0.31173 26.24968,57.87984 l 0.87835,44.93883 -22.03869,-0.15519 C 90.597912,344.35424 78.529138,343.28819 75.899713,342.0705 Z M 115.707,297.46964 c -0.017,-23.22601 -0.89808,-43.80491 -1.95596,-45.73091 -1.19206,-2.17033 -6.77871,-3.90644 -14.692898,-4.566 -11.518125,-0.95992 -13.30457,-0.44773 -18.229551,5.22659 -6.043656,6.96312 -7.123939,16.56316 -2.374858,21.1042 4.664311,4.46 11.788313,0.80795 11.788313,-6.04315 0,-7.35861 2.968738,-9.50978 8.455246,-6.12675 3.028538,1.86743 4.293488,5.12425 4.293488,11.05429 0,7.51896 -1.24019,9.32091 -11.74256,17.06134 -12.603174,9.28876 -15.879709,15.64888 -15.879709,30.82435 0,15.32527 5.157247,19.42514 24.435094,19.42514 l 15.935925,0 -0.0325,-42.2291 z m -23.616386,29.04393 c -3.481548,-8.8038 -0.635228,-23.53578 4.547328,-23.53578 8.869148,0 10.331138,21.85533 1.813342,27.10748 -3.243754,2.00012 -4.417959,1.34076 -6.36067,-3.5717 z m 36.885746,-32.71602 0.57431,-50.79733 20.39114,-0.69613 c 17.58801,-0.60045 21.0931,-0.0418 25.4975,4.06374 5.02013,4.67955 5.11811,5.54878 5.80308,51.49346 l 0.69676,46.73357 -12.8424,0 -12.84244,0 -0.68301,-26.31667 -0.68301,-26.31669 -0.45126,26.31669 -0.45127,26.31667 -12.79185,0 -12.79185,0 0.5743,-50.79731 z m 19.91354,8.56823 c 1.79519,-37.41598 2.16132,-39.78105 6.15826,-39.78105 3.99821,0 4.3606,2.35296 6.12673,39.78105 l 1.87714,39.78102 7.44887,0 7.4489,0 -1.53816,-39.55544 c -0.846,-21.7555 -2.34003,-41.98537 -3.32009,-44.95531 -2.28223,-6.91595 -5.65872,-8.30317 -24.73121,-10.16067 l -15.62248,-1.52149 0,46.46442 c 0,25.55543 0.63743,47.19884 1.41654,48.09644 0.77908,0.89764 3.98383,1.63205 7.12165,1.63205 l 5.70514,0 1.90871,-39.78102 z m 44.40449,40.43789 c -6.42432,-1.84927 -7.36884,-5.11927 -7.40424,-25.63416 l -0.0326,-18.85712 8.74626,-8.07158 8.74623,-8.07157 -8.21504,-1.22402 -8.21505,-1.22404 -0.65147,-13.15907 c -0.5383,-10.87323 0.17189,-14.16891 4.08876,-18.9725 4.25136,-5.21386 6.55963,-5.81342 22.38159,-5.81342 24.68226,0 24.78451,0.21764 26.38888,56.18115 0.67745,23.63099 0.86433,43.79165 0.41527,44.80148 -0.88817,1.99728 -39.33638,2.03457 -46.24866,0.0448 z m 38.9785,-12.89719 c 0.40274,-4.71252 0.0602,-23.28404 -0.76118,-41.27004 -1.24917,-27.35265 -2.15098,-33.45938 -5.51306,-37.33297 -4.71256,-5.42956 -19.2175,-6.22802 -27.32048,-1.50392 -6.6019,3.84895 -10.35773,17.14722 -6.39615,22.64686 3.89193,5.40298 11.48793,3.57937 12.29508,-2.95172 1.78877,-14.47381 13.15239,-11.78266 13.15239,3.11477 0,7.2569 -1.39098,9.26595 -12.08057,17.4487 -13.40054,10.25795 -16.51201,17.48882 -14.4611,33.60672 1.92616,15.13728 3.67996,16.31262 23.15037,15.51475 l 17.20244,-0.70493 0.73226,-8.56822 z m -24.09787,-1.56555 c -2.59999,-2.99558 -3.29607,-6.55543 -2.45271,-12.54328 2.64668,-18.79093 12.00718,-18.28852 12.00718,0.64449 0,12.81603 -4.2089,18.05762 -9.55447,11.89879 z m 75.42744,14.06471 c -7.19924,-2.30752 -7.95357,-7.83616 -8.25224,-60.48311 -0.25804,-45.48539 1.36048,-58.02521 7.86505,-60.93566 7.73461,-3.46082 31.7405,-4.26648 39.47667,-1.32489 9.63698,3.66438 11.90104,9.53175 11.90104,30.84181 l 0,15.75304 -13.95892,0 c -13.26058,0 -13.92497,0.27558 -13.27994,5.50814 0.60983,4.94722 2.03136,5.58238 13.95891,6.23698 l 13.27995,0.72882 0,32.93206 0,32.93203 -22.8415,-0.24407 c -12.56284,-0.13414 -25.2299,-1.00955 -28.14902,-1.94519 z m 24.33709,-3.77599 c 7.78245,-2.69853 11.05319,-2.86254 14.0522,-0.7047 2.14984,1.54686 4.62736,1.98459 5.50559,0.97276 0.87823,-1.01185 1.63882,-13.63889 1.69021,-28.06007 l 0.0934,-26.22033 -6.09989,-0.80316 c -10.49284,-1.3816 -16.21041,1.45756 -16.21041,8.04953 0,3.26096 0.95617,6.60987 2.12479,7.44201 2.32686,1.65688 2.89249,18.10314 0.83508,24.28042 -1.97176,5.92005 -7.07035,4.61251 -9.38682,-2.40721 -2.28946,-6.93789 -2.84283,-62.11105 -0.74422,-74.20057 0.93007,-5.35788 2.54174,-7.65021 5.37866,-7.65021 4.13729,0 4.73176,1.09662 6.96751,12.85234 1.08831,5.7225 2.35554,6.73217 8.44929,6.73217 8.65646,0 10.44514,-3.99173 8.49668,-18.96181 -1.70822,-13.12449 -5.48697,-15.31108 -26.45988,-15.31108 -21.43832,0 -21.87488,1.10641 -22.0684,55.92956 -0.18487,52.36677 1.59013,59.66136 14.91448,61.29353 1.27506,0.15618 6.88281,-1.29874 12.4617,-3.23318 z m -0.96885,-25.85961 c 0,-1.34643 -0.95615,-2.44806 -2.1248,-2.44806 -1.16863,0 -2.12479,1.10163 -2.12479,2.44806 0,1.34643 0.95616,2.44807 2.12479,2.44807 1.16865,0 2.1248,-1.10164 2.1248,-2.44807 z m 32.36656,-29.98878 0.5677,-61.81361 13.27994,-0.72884 13.27994,-0.72881 0,62.54242 0,62.54244 -13.84763,0 -13.84763,0 0.56768,-61.8136 z m 21.8156,0.61202 0,-57.52951 -6.90557,-0.76711 -6.90557,-0.76713 0,59.06375 0,59.06374 6.90557,-0.76713 6.90557,-0.76712 0,-57.52949 z m 14.21073,58.77772 -4.91239,-2.42668 0.66279,-45.51388 c 0.78793,-54.10429 -0.001,-52.45425 25.09793,-52.45425 18.93848,0 22.8389,2.43788 25.56357,15.97798 2.66742,13.2555 2.54767,63.90525 -0.17785,75.21239 -1.85785,7.70767 -3.13407,9.18304 -7.95609,9.19765 -3.15882,0.01 -11.95833,0.56103 -19.55445,1.22543 -7.59613,0.6644 -16.02171,0.11604 -18.72353,-1.21864 z m 39.5772,-45.51549 c -0.76592,-49.34158 -1.01157,-49.98319 -19.135,-49.98319 -12.8176,0 -17.87053,5.28931 -19.89236,20.82299 -2.24441,17.24394 -0.0753,63.84527 3.18211,68.36749 2.08417,2.89332 6.90998,3.83594 19.63828,3.83594 l 16.87512,0 -0.66815,-43.04323 z m -23.03106,29.41952 c -1.13971,-3.45373 -2.0722,-18.74165 -2.0722,-33.97314 0,-22.02853 0.6738,-28.3379 3.29382,-30.84315 2.72353,-2.60423 3.91919,-2.42906 6.90559,1.01171 2.99138,3.44651 3.61173,9.12737 3.61173,33.07432 0,20.90767 -0.80742,30.03397 -2.91614,32.96144 -4.07278,5.65402 -6.4163,5.06137 -8.8228,-2.23118 z m 36.17403,-43.75714 0,-62.81861 12.21755,0.7342 12.21755,0.73417 0.70404,8.54683 c 0.81807,9.93074 3.11081,12.1727 12.50115,12.22424 11.12224,0.0609 12.29229,5.22965 12.29229,54.30045 0,23.78568 -0.7839,44.15095 -1.74198,45.25615 -0.95811,1.10521 -12.19295,2.4216 -24.9663,2.92531 l -23.2243,0.91587 0,-62.81861 z m 41.28165,53.5339 c 2.74264,-3.15992 3.33897,-10.49518 3.33897,-41.07237 0,-44.47434 -1.3304,-48.54238 -15.54144,-47.52179 l -8.89367,0.63872 -1.06238,-11.01629 c -0.99734,-10.34157 -1.48535,-11.06326 -7.96798,-11.7834 l -6.90556,-0.76713 0,57.68461 0,57.6846 16.84655,0 c 12.482,0 17.7116,-0.99666 20.18551,-3.84695 z m -21.19937,-14.11591 c -1.95151,-8.95835 1.88908,-58.62926 4.61349,-59.66688 3.73079,-1.4209 4.99092,8.0757 5.0223,37.84871 0.0272,25.83163 -0.23219,27.54071 -4.18009,27.54071 -2.63968,0 -4.67393,-2.13375 -5.4557,-5.72254 z m 40.16912,20.43098 c -3.56887,-1.65928 -4.74083,-4.67254 -5.41454,-13.92119 -1.40456,-19.28195 1.27838,-30.51627 9.07978,-38.02004 6.24641,-6.00812 6.52674,-6.81066 2.84673,-8.14907 -8.43,-3.06593 -10.47501,-5.51488 -11.14416,-13.34527 -1.84274,-21.56383 3.35904,-26.9551 26.0077,-26.9551 25.96553,0 25.50511,-0.98743 26.37176,56.55683 l 0.69677,46.26184 -21.94466,-0.15519 c -12.06956,-0.0854 -23.9943,-1.10812 -26.49938,-2.27284 z m 42.71952,-37.35302 c -1.46098,-42.3079 -2.33075,-49.5547 -6.52818,-54.39072 -3.75769,-4.3294 -22.21697,-5.14573 -28.51695,-1.26109 -4.22893,2.60758 -9.55109,20.37158 -7.33894,24.49547 2.65207,4.94407 9.79062,2.26539 13.34846,-5.00886 5.16976,-10.56994 11.89866,-9.09656 12.76151,2.79432 0.59109,8.14571 -0.2129,9.56652 -9.99581,17.66417 -14.58961,12.07628 -18.00658,18.6896 -16.67724,32.27774 1.65781,16.9458 3.54466,18.31387 25.25843,18.31387 l 18.89334,0 -1.20462,-34.8849 z m -27.09708,23.56388 c -2.26379,-2.60824 -1.81037,-17.72273 0.69339,-23.1128 1.20974,-2.60436 4.12593,-4.73519 6.48041,-4.73519 3.86885,0 4.21952,1.35482 3.64363,14.07636 -0.54392,12.01507 -1.27234,14.18112 -4.97426,14.79164 -2.38536,0.3934 -5.01478,-0.0656 -5.84317,-1.02001 z m 6.27543,-16.21969 c -0.58944,-1.68304 -1.07174,-0.30601 -1.07174,3.06008 0,3.36609 0.4823,4.74312 1.07174,3.06008 0.58943,-1.68304 0.58943,-4.43712 0,-6.12016 z m 0.71758,-40.06999 c 0,-2.01964 -0.95616,-2.99126 -2.12479,-2.15911 -1.16864,0.83214 -2.1248,3.16542 -2.1248,5.18507 0,2.01965 0.95616,2.99126 2.1248,2.15912 1.16863,-0.83215 2.12479,-3.16543 2.12479,-5.18508 z m 29.74706,10.0812 0,-62.42563 9.68698,0 c 5.9169,0 9.17586,0.95277 8.37374,2.44807 -0.72225,1.34644 -4.12524,2.44806 -7.56217,2.44806 l -6.24897,0 0,57.40787 c 0,52.09151 0.34434,57.63891 3.71838,59.90311 3.17893,2.13326 2.87067,2.50605 -2.12478,2.56971 l -5.84318,0.0744 0,-62.42562 z M 263.68353,190.2595 c -24.57765,-7.13526 -55.41867,-34.72306 -54.05392,-48.35209 0.6156,-6.1476 1.46224,-6.67499 11.81826,-7.36194 10.95441,-0.72663 14.34965,-3.44403 7.878,-6.30526 -2.64197,-1.16806 -3.15674,-5.13337 -2.65599,-20.45843 l 0.62117,-19.009569 14.34233,-0.723866 14.34234,-0.723872 0,19.492367 c 0,12.77353 -0.86207,19.82342 -2.50098,20.45284 -5.28656,2.0303 1.02355,6.79171 9.00076,6.79171 l 8.37375,0 0,-47.737242 0,-47.737243 -8.02129,0 -8.02128,0 0.0533,21.420558 0.0533,21.420558 -13.81115,0 -13.81114,0 -0.63803,-15.542242 c -0.44168,-10.759071 0.34591,-17.272413 2.55917,-21.164198 2.94238,-5.173836 2.86621,-5.721713 -0.95554,-6.873159 -15.68922,-4.72704 12.35361,-28.7996826 33.1707,-28.474507 l 10.48431,0.1637761 -8.49917,3.1050259 c -17.93997,6.554029 -33.13415,18.115231 -26.93607,20.495606 3.04451,1.169219 3.33282,11.911519 0.37619,14.016829 -2.32685,1.656874 -2.89248,18.103139 -0.83506,24.280411 2.09809,6.299429 11.19455,4.771495 14.01227,-2.35364 2.02867,-5.129869 1.69142,-8.327753 -1.91562,-18.164341 -5.51155,-15.030206 -3.83275,-17.23858 13.06726,-17.189301 17.20071,0.05018 19.87609,2.13312 16.51098,12.854954 -3.38123,10.773266 -3.50459,71.175565 -0.15786,77.349655 1.33959,2.47137 1.83063,7.27058 1.09123,10.66488 -1.05602,4.8477 -3.05968,6.47522 -9.34119,7.58764 -11.33564,2.00751 -22.67878,-1.20592 -23.59445,-6.6841 -0.41238,-2.46707 0.89485,-8.68763 2.90495,-13.82345 4.9333,-12.60454 2.87986,-26.150416 -4.27795,-28.220229 -2.80398,-0.810844 -6.10864,-0.754686 -7.34368,0.124855 -3.41874,2.434378 -2.67813,25.070084 1.09536,33.477394 4.63363,10.32373 2.83368,13.45911 -8.57732,14.94097 -5.41588,0.70333 -10.51695,2.06499 -11.33569,3.0259 -2.46517,2.89322 19.89113,24.87111 32.56849,32.01723 18.97845,10.69799 58.37127,11.61814 58.37127,1.36345 0,-0.86229 -2.0532,-2.65525 -4.56269,-3.98435 -2.50948,-1.3291 -6.83914,-7.48525 -9.62145,-13.68029 -14.02326,-31.22395 -9.22615,-74.39482 10.09847,-90.879863 4.82213,-4.113554 7.6685,-4.466269 23.84129,-2.954369 l 18.36543,1.716873 -1.13612,14.969589 c -2.33327,30.74362 -5.52584,33.55958 -15.07098,13.293228 -3.28791,-6.980942 -7.11228,-13.108299 -8.49861,-13.616345 -1.38629,-0.508021 -4.21455,2.055026 -6.28499,5.695686 -3.07266,5.402925 -3.78088,12.156571 -3.8538,36.750411 -0.0946,31.90006 1.74908,39.19311 8.31973,32.91027 4.56054,-4.36074 4.09071,-15.37076 -0.97233,-22.78667 -9.0387,-13.23911 -4.22199,-17.25219 19.18865,-15.98717 15.20361,0.82154 15.55452,1.45333 11.62973,20.93927 -2.64859,13.14987 2.77988,9.51397 9.13761,-6.12014 4.88625,-12.01566 5.72442,-17.30183 5.72562,-36.108944 0.001,-18.692146 -0.84753,-24.118498 -5.59779,-35.790717 -3.07955,-7.566991 -9.03799,-18.143606 -13.24097,-23.503617 -8.4147,-10.731137 -28.06627,-23.864631 -40.90416,-27.337014 l -8.249,-2.2311654 10.73797,-0.2459079 c 19.89531,-0.4556096 44.1914,19.5780223 56.43187,46.5315953 6.59856,14.53009 8.49007,60.4716 3.15271,76.57364 -3.62123,10.92412 -16.05775,28.42866 -20.19806,28.42866 -6.21074,0 -8.56088,-22.55854 -3.25874,-31.28011 3.29918,-5.42687 3.27733,-5.44085 -8.49918,-5.44085 -11.76415,0 -13.90779,1.49629 -9.46955,6.60978 1.2855,1.48107 2.33728,9.43579 2.33728,17.67714 0,12.43071 0.58433,14.87129 3.42888,14.32117 4.85614,-0.93912 5.72667,7.36697 1.35536,12.9321 -9.3506,11.9043 -49.7103,20.26634 -69.74427,14.45018 z m 46.08634,-27.43336 c -0.95525,-3.02949 -1.73678,-21.59012 -1.73678,-41.24584 0,-39.416881 1.21119,-43.824377 12.04311,-43.824377 6.66714,0 16.64157,9.384112 16.64157,15.656668 0,2.001384 0.95615,4.319734 2.12478,5.151879 1.29494,0.922065 2.1248,-2.741367 2.1248,-9.379954 0,-10.532846 -0.24584,-10.942235 -7.43677,-12.384783 -4.09022,-0.820542 -10.67447,-2.148564 -14.63163,-2.951187 -14.89675,-3.021501 -22.04154,9.329469 -24.01267,41.509914 -1.55354,25.36306 0.0989,36.04736 7.04586,45.55955 6.44935,8.83074 10.31744,9.77244 7.83773,1.90813 z M 200.46011,125.11692 c -2.04893,-2.84445 -2.9129,-11.39856 -2.9053,-28.764737 0.008,-20.489129 0.75617,-26.181854 4.36868,-33.284637 3.09505,-6.085399 5.86259,-8.568228 9.55072,-8.568228 4.89283,0 5.29226,1.060869 6.91289,18.360479 1.72583,18.422264 0.82785,44.100813 -1.82024,52.051513 -1.8284,5.4897 -12.20502,5.62217 -16.10675,0.20564 z m 6.99729,-34.761668 -1.79778,-11.375294 -1.64097,9.196566 c -0.90252,5.058118 -0.91044,14.421956 -0.017,20.808536 l 1.62338,11.61197 1.81536,-9.43324 c 0.99847,-5.18827 1.00639,-14.552117 0.0169,-20.808538 z m 5.37017,-4.596531 c -0.53873,-2.381895 -1.01492,-1.025817 -1.05822,3.01349 -0.0434,4.039306 0.39746,5.988117 0.9795,4.330699 0.58202,-1.657412 0.61743,-4.962301 0.0788,-7.344189 z"
     id="path4714"
     inkscape:connector-curvature="0" />
</svg>
