<?xml version="1.0" encoding="UTF-8" standalone="no"?>
<!-- Created with Inkscape (http://www.inkscape.org/) -->

<svg
   xmlns:dc="http://purl.org/dc/elements/1.1/"
   xmlns:cc="http://creativecommons.org/ns#"
   xmlns:rdf="http://www.w3.org/1999/02/22-rdf-syntax-ns#"
   xmlns:svg="http://www.w3.org/2000/svg"
   xmlns="http://www.w3.org/2000/svg"
   xmlns:sodipodi="http://sodipodi.sourceforge.net/DTD/sodipodi-0.dtd"
   xmlns:inkscape="http://www.inkscape.org/namespaces/inkscape"
   id="svg8024"
   version="1.1"
   inkscape:version="0.91 r13725"
   width="398"
   height="299"
   viewBox="0 0 398 299"
   sodipodi:docname="Jigs and Fixture Design.svg">
  <metadata
     id="metadata8030">
    <rdf:RDF>
      <cc:Work
         rdf:about="">
        <dc:format>image/svg+xml</dc:format>
        <dc:type
           rdf:resource="http://purl.org/dc/dcmitype/StillImage" />
        <dc:title></dc:title>
      </cc:Work>
    </rdf:RDF>
  </metadata>
  <defs
     id="defs8028" />
  <sodipodi:namedview
     pagecolor="#ffffff"
     bordercolor="#666666"
     borderopacity="1"
     objecttolerance="10"
     gridtolerance="10"
     guidetolerance="10"
     inkscape:pageopacity="0"
     inkscape:pageshadow="2"
     inkscape:window-width="1366"
     inkscape:window-height="705"
     id="namedview8026"
     showgrid="false"
     inkscape:zoom="0.72361809"
     inkscape:cx="199"
     inkscape:cy="149.5"
     inkscape:window-x="-8"
     inkscape:window-y="-8"
     inkscape:window-maximized="1"
     inkscape:current-layer="svg8024" />
  <path
     style="fill:#000000"
     d="m 109.64151,254.14969 c -0.4861,-0.61705 -1.6445,-3.45424 -2.57423,-6.30486 -1.88892,-5.7916 -2.40735,-2.41175 10.21043,-66.56705 l 4.86772,-24.75 -9.78744,0 -9.78745,0 -1.38056,-4.75 c -0.75931,-2.6125 -2.160673,-7.9 -3.114133,-11.75 l -1.73356,-7 11.584893,-39.500003 c 6.37169,-21.724999 12.02096,-40.512499 12.55394,-41.749999 0.96874,-2.249246 0.97762,-2.25 26.4905,-2.25 l 25.52144,0 0,-4.923275 c 0,-9.187387 5.99338,-13.081815 20.11602,-13.071148 9.64478,0.0073 14.54668,1.457119 18.58706,5.497499 2.7736,2.773602 3.29692,4.027084 3.29692,7.896924 l 0,4.6 22.25,0.01365 c 12.2375,0.0075 23.21876,0.273557 24.40281,0.591215 1.76492,0.473496 3.25385,3.741806 8.26367,18.139339 3.36098,9.658978 5.92953,17.743115 5.7079,17.964745 -0.22164,0.22164 -1.31843,-2.20971 -2.43731,-5.402991 -2.28631,-6.525079 -5.97312,-16.32732 -8.95387,-23.805958 l -1.99285,-5 -14.87017,-0.715464 c -8.1786,-0.393505 -18.92018,-0.618505 -23.87018,-0.5 l -9,0.215464 -0.28669,9.187211 -0.2867,9.187211 5.54273,-1.948111 c 5.03532,-1.769776 5.86386,-1.813933 9.05075,-0.482364 9.34684,3.905359 2.46823,11.520319 -8.40819,9.308277 -2.53654,-0.515882 -5.1504,-0.971175 -5.80857,-1.011762 -0.65816,-0.04059 -1.21566,-1.236295 -1.23888,-2.657129 -0.37442,-22.913393 -0.45292,-23.567522 -2.86949,-23.910097 -1.26778,-0.17972 -2.84278,0.105833 -3.5,0.634562 -3.48989,2.807564 -21.41362,1.94041 -27.76342,-1.3432 l -2.81735,-1.456906 -0.30709,12.594133 c -0.16891,6.926774 0.0304,12.801601 0.4429,13.055171 1.07459,0.660568 0.89759,6.56723 -0.25,8.343004 -0.72343,1.119432 -0.97326,0.571905 -0.98469,-2.158062 l -0.0153,-3.658063 -4.94739,1.582113 c -4.06308,1.299321 -5.65327,1.370626 -8.89652,0.398925 -5.13659,-1.53896 -5.88239,-3.621061 -2.39633,-6.689969 4.38002,-3.855899 13.29869,-4.516099 15.47675,-1.14566 0.41611,0.643894 0.55894,-0.854284 0.31742,-3.329284 -0.24152,-2.475 -0.46496,-6.6375 -0.49653,-9.25 l -0.0574,-4.75 -25.42235,0 -25.42235,0 -3.00697,9.75 c -1.65384,5.3625 -5.05222,16.95 -7.55197,25.749999 -2.49974,8.8 -6.35441,22.233933 -8.56592,29.853183 -2.21152,7.61924 -3.771523,14.25674 -3.46668,14.75 0.30485,0.49325 -0.0348,0.90371 -0.754743,0.91213 -1.05825,0.0124 -1.06307,0.17138 -0.0251,0.82995 0.70775,0.44909 0.996293,1.56404 0.64301,2.48469 -0.37446,0.97582 -0.15268,1.67005 0.533523,1.67005 0.7021,0 0.92984,0.77045 0.56631,1.91584 -0.33444,1.05372 -0.13242,2.20981 0.44892,2.5691 0.58135,0.35929 0.79809,1.07216 0.48166,1.58416 -0.31643,0.51199 -0.23945,1.47436 0.17107,2.1386 0.41052,0.66423 0.86309,2.30219 1.00572,3.6399 0.54046,5.06919 0.7235,5.1524 11.33453,5.1524 7.90401,0 10.03139,0.29519 10.03139,1.39194 0,0.76557 -0.87297,5.82807 -1.93993,11.25 -1.8188,9.24251 -11.10559,57.44528 -12.97726,67.35806 -1.62464,8.60442 -2.8095,8.01452 15.83386,7.88312 9.12083,-0.0643 19.50833,-0.46541 23.08333,-0.89138 l 6.5,-0.77449 -7.70477,0.14137 c -4.23763,0.0778 -7.38763,-0.1506 -7,-0.50746 1.16672,-1.07413 78.68166,-4.63078 108.20477,-4.96481 7.975,-0.0902 15.03898,-0.36569 15.69774,-0.61214 1.14434,-0.4281 4.06587,-10.96374 3.21277,-11.58592 -0.22578,-0.16466 -6.03551,-0.0466 -12.91051,0.26233 -6.875,0.30894 -14.075,0.31124 -16,0.005 -1.925,-0.30614 3.69899,-0.86837 12.49775,-1.24941 9.21424,-0.39902 16.14004,-1.11968 16.33333,-1.69955 0.18457,-0.55372 0.77464,-1.00676 1.31127,-1.00676 0.53663,0 0.72132,0.41157 0.41044,0.91459 -0.31089,0.50302 -0.0687,1.0801 0.53812,1.28238 0.79351,0.2645 0.8085,1.48205 0.0534,4.33541 -0.57749,2.18219 -1.27437,5.24908 -1.54864,6.81531 l -0.49867,2.84768 8.952,-0.34768 c 10.149,-0.39418 9.94423,-0.61677 7.03977,7.65231 l -1.75622,5 -5.78749,0.63065 c -3.18311,0.34686 -13.27044,0.79686 -22.41628,1 l -16.62878,0.36945 0.008,-6.20833 c 0.007,-5.68987 -0.15963,-6.17365 -2,-5.79296 -1.10444,0.22845 -17.53307,0.89937 -36.50807,1.49094 -18.975,0.59157 -36.01067,1.31533 -37.85705,1.60836 l -3.35706,0.53278 0.65839,5.26956 c 0.47326,3.78785 0.29248,5.56175 -0.64295,6.30872 -1.9014,1.51834 -46.5028,2.37273 -47.65288,0.91284 z m 31.60155,-2.28112 c 15.63105,-0.71507 15.36485,-0.57406 13.59126,-7.19961 -0.61159,-2.28468 -0.87048,-2.3406 -8.23635,-1.77906 -4.1827,0.31887 -14.46741,0.63516 -22.85491,0.70287 -8.3875,0.0677 -15.25,0.29668 -15.25,0.50883 0,0.21214 0.72386,2.19481 1.60858,4.40594 l 1.60858,4.02024 7.64142,-0.004 c 4.20278,-0.002 14.05392,-0.29701 21.89142,-0.65555 z m 125.40305,-4.92914 13.65304,-0.60615 1.04589,-4.12048 c 0.57524,-2.26627 0.85568,-4.31069 0.62321,-4.54317 -0.37846,-0.37845 -40.80211,1.77423 -41.08397,2.18785 -0.0638,0.0937 -0.35159,2.01904 -0.63947,4.27861 l -0.52343,4.10831 6.63584,-0.34941 c 3.64971,-0.19218 12.77971,-0.62218 20.28889,-0.95556 z m -27.46994,-3.59915 c -0.31922,-0.79773 -0.55618,-0.56078 -0.60416,0.60417 -0.0434,1.05416 0.19292,1.64479 0.52522,1.3125 0.33229,-0.3323 0.36781,-1.1948 0.0789,-1.91667 z m 20.06689,-6.54097 c -2.0625,-0.21574 -5.4375,-0.21574 -7.5,0 -2.0625,0.21575 -0.375,0.39226 3.75,0.39226 4.125,0 5.8125,-0.17651 3.75,-0.39226 z M 169.95035,73.596876 c 0.31644,-0.511996 0.12565,-1.208823 -0.42397,-1.548504 -1.35865,-0.839695 -8.03332,0.481971 -8.03332,1.590697 0,1.184935 7.7227,1.146407 8.45729,-0.04219 z m 55.97795,0.03569 c 0.81705,-1.32201 -2.22039,-2.196813 -5.10972,-1.471636 -1.86707,0.468604 -2.16883,0.851114 -1.17054,1.483795 1.77471,1.124752 5.58217,1.11738 6.28026,-0.01216 z m -54.38369,-3.264128 c -2.30462,-1.866169 -7.52113,-2.507904 -8.43016,-1.037077 -0.27315,0.441969 1.15855,0.850498 3.18157,0.907842 2.11444,0.05994 4.08735,0.752911 4.6406,1.629988 0.52932,0.839149 1.39411,1.258916 1.92175,0.932815 0.52764,-0.326101 -0.0635,-1.421207 -1.31376,-2.433568 z m 44.50865,2.256754 c -0.3068,-0.496423 0.86461,-1.398452 2.60314,-2.004508 1.73854,-0.606057 2.90482,-1.358073 2.59175,-1.671148 -0.90961,-0.909605 -6.88277,2.562642 -6.22877,3.620833 0.32544,0.526574 0.81671,0.957409 1.09171,0.957409 0.275,0 0.24898,-0.406165 -0.0578,-0.902589 z m 13.82695,-1.530894 c -0.28902,-0.753189 -1.50687,-1.632633 -2.70632,-1.954321 -4.35569,-1.168173 -4.90571,-0.563199 -1.57871,1.736434 3.55385,2.456437 5.17569,2.538905 4.28503,0.217887 z m -68.84603,0.366952 c 1.07627,-1.741443 -0.14952,-2.110241 -1.52106,-0.457635 -0.78875,0.950381 -0.86462,1.524163 -0.20152,1.524163 0.58488,0 1.36004,-0.479939 1.72258,-1.066531 z m 41.17495,-23.05162 c -0.11884,-0.503004 1.71585,-1.793889 4.07709,-2.868633 l 4.29316,-1.95408 0.89346,2.220432 c 0.81409,2.023213 0.89908,1.943745 0.95683,-0.894709 0.0827,-4.063874 -3.03503,-7.919215 -7.70225,-9.524527 -2.0539,-0.706447 -7.78436,-1.301523 -12.73436,-1.322391 -10.52844,-0.04438 -15.7688,2.098497 -16.30749,6.668439 -0.54366,4.611978 4.32653,7.156724 17.2689,9.023273 3.40205,0.490644 9.47988,-0.394503 9.25466,-1.347804 z m 5.42064,-1.669612 c -0.72144,-0.240481 -1.78716,0.03821 -2.36826,0.619313 -0.74207,0.742068 -0.35164,0.872211 1.31171,0.437237 1.3522,-0.353609 1.8055,-0.806902 1.05655,-1.05655 z M 123.83068,240.85683 c 0.71445,-0.71445 11.815,-0.50976 12.55629,0.23153 0.24168,0.24168 -2.63558,0.43942 -6.39391,0.43942 -3.75833,0 -6.53141,-0.30193 -6.16238,-0.67095 z m 159.74133,-9.91238 c 0.048,-1.16495 0.28494,-1.4019 0.60416,-0.60417 0.28887,0.72187 0.25335,1.58437 -0.0789,1.91667 -0.33229,0.33229 -0.56864,-0.25834 -0.52522,-1.3125 z M 145.24306,226.8655 c 0.6875,-0.27741 1.8125,-0.27741 2.5,0 0.6875,0.27741 0.125,0.50439 -1.25,0.50439 -1.375,0 -1.9375,-0.22698 -1.25,-0.50439 z m -23.25,-1.33772 c 0.33992,-0.55 0.81647,-1 1.05902,-1 0.24254,0 0.44098,0.45 0.44098,1 0,0.55 -0.47656,1 -1.05902,1 -0.58246,0 -0.7809,-0.45 -0.44098,-1 z m 42.25,0.26276 c 2.8875,-0.202 7.6125,-0.202 10.5,0 2.8875,0.202 0.525,0.36728 -5.25,0.36728 -5.775,0 -8.1375,-0.16528 -5.25,-0.36728 z m 33.25,-1.3207 c 5.21037,-0.41683 0.37269,-0.57361 -12.5,-0.40511 -11.55,0.1512 -19.425,-0.0457 -17.5,-0.43755 1.925,-0.39184 7.775,-0.8201 13,-0.95167 5.225,-0.13157 17.15,-0.66005 26.5,-1.17438 16.74416,-0.92109 32.62204,-1.07089 27.25,-0.2571 -1.5125,0.22913 -2.75,0.86326 -2.75,1.40919 0,0.54593 0.45,0.71448 1,0.37456 0.55,-0.33992 1,-0.21174 1,0.28485 0,0.96008 -25.52863,2.34278 -37.40899,2.02618 l -7.09101,-0.18897 8.5,-0.68 z m 33.0005,-1.69206 c 2.8e-4,-0.4125 -4.16222,-0.6224 -9.25,-0.46644 -14.34583,0.43976 -15.42891,0.90175 -2.5005,1.06661 6.4625,0.0824 11.75023,-0.18767 11.7505,-0.60017 z m -104.77137,-0.42087 c -3.47009,-3.47009 1.39084,-8.78497 6.48883,-7.09482 3.04417,1.00925 4.1843,4.29088 2.0803,5.98772 -2.22068,1.79094 -7.23718,2.43905 -8.56913,1.1071 z m 7.13374,-2.87111 c 1.51373,-1.37495 -0.2971,-2.82612 -3.41591,-2.73745 -3.33503,0.0948 -4.41641,1.11369 -3.55753,3.35188 0.5762,1.50155 5.08084,1.10465 6.97344,-0.61443 z m 147.62348,0.79198 c -0.008,-0.6875 -0.29896,-2.375 -0.64765,-3.75 -0.90387,-3.56415 0.542,-1.90275 1.62235,1.86419 0.54822,1.91154 0.53618,3.13581 -0.0309,3.13581 -0.5116,0 -0.93633,-0.5625 -0.94384,-1.25 z m -128.71732,-0.44299 c 0.97297,-0.25354 2.32297,-0.23687 3,0.0371 0.67703,0.27393 -0.11903,0.48137 -1.76903,0.46099 -1.65,-0.0204 -2.20394,-0.2445 -1.23097,-0.49804 z m 87.2459,-1.33117 c 0.28473,-0.4607 0.08,-1.10815 -0.45494,-1.43877 -0.53496,-0.33061 -0.75515,-1.16789 -0.48933,-1.86061 0.31871,-0.83054 -0.45791,-1.24535 -2.28031,-1.21798 -1.52,0.0228 -2.76964,-0.48348 -2.77699,-1.12515 -0.0198,-1.73284 -1.22939,-2.62687 -2.49539,-1.84444 -0.80416,0.497 -0.76144,1.15231 0.15321,2.35014 0.69756,0.91353 0.0444,0.57003 -1.45144,-0.76334 -2.73071,-2.4341 -3.89104,-4.29267 -1.37773,-2.20681 1.67938,1.39376 2.71394,0.46854 1.91952,-1.71665 -0.5051,-1.38938 -0.25831,-1.35171 1.5513,0.23682 4.49281,3.94393 16.69013,1.98336 17.66307,-2.83912 0.22746,-1.12746 0.69416,-5.7601 1.03711,-10.29474 0.57093,-7.54932 0.4774,-8.18874 -1.10878,-7.58006 -1.17061,0.4492 -1.50016,0.2891 -1.01634,-0.49374 0.47568,-0.76966 0.16697,-0.9478 -0.9198,-0.53077 -1.17682,0.45158 -1.29993,0.83528 -0.43878,1.36749 0.78311,0.48399 0.207,1.13125 -1.66616,1.87193 -2.54952,1.00812 -1.24764,0.99872 2.51185,-0.0181 2.05733,-0.55647 2.36531,1.44563 0.56432,3.66853 -0.8732,1.07776 -1.30589,1.40221 -0.96154,0.72101 0.423,-0.83677 0.0872,-1.03173 -1.0353,-0.601 -1.45823,0.55957 -1.47541,0.74162 -0.14045,1.4887 0.83653,0.46814 1.37021,1.6386 1.18597,2.60101 -0.18424,0.96241 -0.40384,1.74984 -0.488,1.74984 -0.0842,0 -0.30377,0.7875 -0.48803,1.75 -0.38216,1.99635 1.06233,2.39194 1.82575,0.5 0.37807,-0.93696 0.52416,-0.91222 0.58333,0.0988 0.14597,2.49378 -5.91367,7.15117 -9.3043,7.15117 -3.32252,0 -7.61675,-2.35615 -7.61675,-4.17915 0,-0.67236 0.46139,-0.72908 1.25,-0.15367 0.6875,0.50164 3.05,0.6206 5.25,0.26435 2.2,-0.35624 3.4705,-0.71158 2.82332,-0.78962 -0.64717,-0.078 -1.38247,-0.92941 -1.63399,-1.89191 -0.43555,-1.66667 -0.46285,-1.66667 -0.57333,0 -0.13663,2.06118 -2.88111,2.24425 -5.366,0.35795 -2.70845,-2.056 -2.2136,-3.94112 0.83379,-3.17628 1.67543,0.42051 2.3578,0.28284 1.94098,-0.39159 -0.35354,-0.57204 -1.29125,-1.04008 -2.08379,-1.04008 -0.79254,0 -1.44098,-0.40787 -1.44098,-0.90638 0,-0.49851 1.0125,-0.68447 2.25,-0.41325 1.80765,0.39617 1.9551,0.28248 0.75,-0.57831 -1.17218,-0.83728 -1.20261,-1.07478 -0.13922,-1.08675 0.94413,-0.0106 0.7766,-0.55114 -0.54713,-1.76531 -1.04935,-0.9625 -1.31333,-1.34837 -0.58661,-0.8575 0.72671,0.49088 1.63489,0.57891 2.01817,0.19563 0.38328,-0.38328 0.0349,-1.10965 -0.77417,-1.61416 -0.98573,-0.61466 -0.1514,-0.77204 2.52896,-0.47701 2.2,0.24215 3.1,0.2062 2,-0.0799 -3.28177,-0.85353 -6.5,-2.68965 -6.5,-3.70849 0,-0.52441 0.74818,-0.33587 1.66262,0.41898 1.29619,1.06996 1.75534,1.09695 2.08333,0.12244 0.25055,-0.7444 2.18329,-1.25 4.77837,-1.25 2.3967,0 4.64707,-0.4683 5.00082,-1.04068 0.35375,-0.57237 1.5053,-0.76705 2.55902,-0.43261 1.29622,0.4114 1.91584,0.13141 1.91584,-0.86572 0,-1.22237 -0.59729,-1.29047 -3.5013,-0.39921 -2.43422,0.74708 -4.86286,0.76301 -7.96887,0.0523 -3.23078,-0.7393 -4.31882,-0.71665 -3.93022,0.0818 0.29555,0.60728 -0.84345,-0.45385 -2.53112,-2.35808 -2.70299,-3.04982 -3.04943,-4.12185 -2.90845,-9 0.1065,-3.68533 0.28043,-4.36698 0.51994,-2.03777 0.80248,7.80396 2.30734,9.81923 8.46354,11.33414 2.23712,0.55051 2.73968,0.26736 3.26905,-1.84181 0.34404,-1.37078 1.05582,-2.49233 1.58173,-2.49233 0.60674,0 0.60883,0.91366 0.006,2.5 -0.83799,2.20408 -0.6871,2.49819 1.27475,2.48469 1.762,-0.0121 1.91901,-0.20899 0.75421,-0.94563 -0.80907,-0.51167 -1.13907,-1.26228 -0.73333,-1.66802 0.40574,-0.40574 1.24714,-0.22827 1.86979,0.39438 0.84279,0.84279 1.85374,0.75891 3.95602,-0.32822 2.38226,-1.23191 2.73394,-1.91032 2.2485,-4.3375 -0.47119,-2.35597 0.0848,-3.57668 3.06942,-6.73845 2.00467,-2.12369 3.81688,-4.76125 4.02712,-5.86125 0.21024,-1.1 0.7549,-4.025 1.21037,-6.5 l 0.82811,-4.5 9.99752,-0.75404 c 5.49864,-0.41473 10.4659,-0.92699 11.03836,-1.13836 0.57245,-0.21136 1.87121,-3.92204 2.88612,-8.24595 1.01491,-4.32391 2.08073,-8.53665 2.36849,-9.36165 0.28777,-0.825 0.18024,-1.19123 -0.23894,-0.81384 -0.41919,0.37738 -1.8109,0.28742 -3.09269,-0.19992 -1.60014,-0.60837 -2.48339,-0.51001 -2.81823,0.31385 -0.29251,0.71967 -0.51929,0.5629 -0.56664,-0.39171 -0.0606,-1.22198 0.96611,-1.60741 4.42105,-1.65964 3.11865,-0.0472 4.5,0.3415 4.5,1.26609 0,2.7036 -4.27914,20.02589 -5.24574,21.23517 -0.67712,0.84712 -4.16025,1.25 -10.8069,1.25 l -9.80775,0 0.9302,3.2434 c 1.35985,4.74152 0.96828,8.05034 -0.42466,3.58845 -1.67901,-5.37824 -2.32444,-5.45617 -3.08675,-0.37271 -0.68482,4.56667 -2.79836,9.70944 -3.94519,9.59959 -1.75683,-0.16827 -1.7789,0.10071 -0.15542,1.89463 1.70543,1.88448 1.65751,2.05407 -1.35904,4.80926 -2.5007,2.28404 -3.44355,4.34583 -4.70865,10.29664 -0.87001,4.09241 -1.59436,10.36574 -1.60966,13.94074 -0.0226,5.26834 -0.45704,7.01058 -2.29292,9.19455 -1.2458,1.482 -2.46513,2.4945 -2.70964,2.25 -0.2445,-0.2445 -0.44455,0.20614 -0.44455,1.00144 0,1.11938 0.47056,1.21956 2.08334,0.44353 2.02903,-0.97632 1.57109,-0.51859 -3.93466,3.93283 -1.47268,1.19066 -5.57948,2.14438 -4.96708,1.15349 z m -0.0149,-10.97584 c 0.34463,-0.55763 -0.40341,-0.99323 -1.69098,-0.98469 -1.85764,0.0123 -2.01579,0.20481 -0.80902,0.98469 1.86074,1.2025 1.75681,1.2025 2.5,0 z m -4,-6 c -0.33992,-0.55 -1.06803,-1 -1.61803,-1 -0.55,0 -0.72189,0.45 -0.38197,1 0.33992,0.55 1.06803,1 1.61803,1 0.55,0 0.72189,-0.45 0.38197,-1 z m 5.22917,-1.60417 c -0.3323,-0.33229 -1.1948,-0.36781 -1.91667,-0.0789 -0.79773,0.31922 -0.56078,0.55618 0.60417,0.60416 1.05416,0.0434 1.64479,-0.19293 1.3125,-0.52522 z m 5.5146,-1.06019 c -0.69093,-0.27855 -1.02781,-0.87606 -0.74862,-1.32779 0.27919,-0.45173 -0.48141,-0.5627 -1.69022,-0.24659 -2.0974,0.54848 -2.10888,0.60955 -0.25138,1.33646 1.07055,0.41894 2.39645,0.75781 2.94645,0.75305 0.55,-0.005 0.4347,-0.23657 -0.25623,-0.51513 z m -4.60091,-1.83564 c 1.33333,-1.33333 1.18651,-1.49123 -1.32143,-1.42105 -1.55179,0.0434 -2.20801,0.32289 -1.45828,0.62105 1.15087,0.45768 1.15087,0.6766 0,1.40574 -1.09757,0.69537 -1.1057,0.86662 -0.0417,0.87895 0.72678,0.008 1.99643,-0.65969 2.82143,-1.48469 z m 3.25128,-7.93919 c -0.95642,-0.95642 -5.89414,-1.37075 -5.89414,-0.49459 0,0.51358 1.425,0.93378 3.16667,0.93378 1.74166,0 2.96903,-0.19764 2.72747,-0.43919 z m -97.55321,26.43919 c -0.97468,-1.65 -2.30198,-3 -2.94955,-3 -0.64757,0 -1.45055,-0.7118 -1.78439,-1.58179 -1.3671,-3.5626 -0.40776,-3.63323 3.14301,-0.23139 3.30279,3.16426 4.28665,3.56355 8.25,3.34817 2.475,-0.13449 4.6125,-0.36614 4.75,-0.51476 0.1375,-0.14863 0.80634,-0.32648 1.4863,-0.39523 0.67997,-0.0687 1.40414,-0.99647 1.60926,-2.0616 0.35737,-1.85564 0.26535,-1.86609 -2.20112,-0.25 -3.87783,2.54085 -10.79623,2.21838 -13.47013,-0.62785 -1.19587,-1.27295 -2.12211,-3.41045 -2.05831,-4.75 0.098,-2.0585 0.19143,-2.12593 0.60324,-0.43555 0.89293,3.66528 3.0443,5.19154 6.52922,4.63203 l 3.25154,-0.52203 -2.98779,-0.56271 c -1.74906,-0.32941 -3.1269,-1.28505 -3.32332,-2.305 -0.26422,-1.37196 0.37084,-1.74554 2.98779,-1.7576 1.88872,-0.009 2.80979,-0.34183 2.13371,-0.7717 -0.65428,-0.416 -1.19534,-2.09661 -1.20235,-3.73468 -0.007,-1.63807 -0.22475,-3.87831 -0.48388,-4.97831 -0.25913,-1.1 -0.50557,-2.5625 -0.54765,-3.25 -0.0421,-0.6875 -0.46609,-1.25 -0.94224,-1.25 -0.47615,0 -0.53657,1.8 -0.13427,4 0.63281,3.46059 0.48781,4 -1.07526,4 -2.57788,0 -3.20587,-1.57601 -1.3625,-3.41938 1.43303,-1.43303 1.43388,-1.58062 0.009,-1.58062 -0.95892,0 -1.57675,-0.87701 -1.58508,-2.25 -0.0277,-4.57235 -1.16349,-6.84369 -3.27082,-6.54127 -1.1433,0.16407 -2.21263,-0.36377 -2.44871,-1.20873 -0.37252,-1.33333 -0.30121,-1.33333 0.64174,0 0.92618,1.30962 1.06276,1.29147 1.07613,-0.14301 0.0181,-1.94066 -2.5617,-3.24542 -5.78764,-2.92717 -2.79136,0.27539 -5.19686,-1.54356 -5.19686,-3.92982 0,-2.86008 2.27461,-4.06843 5.77091,-3.0657 2.97749,0.85393 3.13277,0.75355 3.51212,-2.27043 0.38519,-3.07057 0.40162,-3.05545 0.55693,0.51281 0.11339,2.60495 -0.29181,3.77092 -1.39007,4 -1.31404,0.27408 -1.34794,0.59834 -0.22261,2.12913 0.73013,0.9932 1.99018,1.93773 2.80012,2.09896 0.80993,0.16123 2.23381,0.62417 3.16419,1.02876 0.93037,0.40459 2.50537,0.52476 3.5,0.26704 1.10739,-0.28693 0.64548,-0.52532 -1.19159,-0.61498 -2.37856,-0.11608 -2.66674,-0.34118 -1.39118,-1.08668 0.91537,-0.53498 2.85503,-0.58822 4.5,-0.12351 3.73069,1.05392 5.44216,0.4316 4.64777,-1.69001 -0.53171,-1.42006 -0.38534,-1.48585 0.92971,-0.4179 1.30579,1.06042 1.80918,0.88836 3.08134,-1.05321 1.24192,-1.89541 1.36644,-3.84978 0.67944,-10.66452 -0.46263,-4.58911 -1.20248,-8.69304 -1.64411,-9.11985 -0.44163,-0.42681 -2.15297,-0.98508 -3.80297,-1.24061 -2.21759,-0.34342 -1.97405,-0.42869 0.93383,-0.32694 3.47738,0.12167 4.02762,0.48574 4.74213,3.13764 0.44457,1.65 0.8903,4.35 0.99053,6 0.10022,1.65 0.41309,3.43096 0.69525,3.9577 1.24892,2.33145 0.88299,6.12236 -0.93498,9.68586 -1.08207,2.12104 -1.67816,3.85644 -1.32464,3.85644 0.35352,0 0.11582,0.63494 -0.52823,1.41097 -0.72066,0.86834 -0.80059,1.6399 -0.20786,2.00623 0.52973,0.32739 1.18607,0.03 1.45853,-0.66097 0.27245,-0.69093 0.46374,0.0938 0.42508,1.74377 -0.062,2.64617 0.72184,10.15337 1.67057,16 0.1785,1.1 0.38197,3.48906 0.45217,5.30902 0.0743,1.92555 0.54571,3.05062 1.12762,2.69098 0.56625,-0.34996 1,0.48193 1,1.91793 0,2.95526 -2.88262,5.11051 -8,5.98137 -2.5859,0.44006 -2.97765,0.35346 -1.5,-0.33156 1.80061,-0.83474 1.72584,-0.93418 -0.75,-0.99745 -1.5125,-0.0387 -2.75,0.37971 -2.75,0.92971 0,2.13029 -2.97318,0.85399 -4.65907,-2 z m 6.38824,-4.60417 c -0.3323,-0.33229 -1.1948,-0.36781 -1.91667,-0.0789 -0.79773,0.31922 -0.56078,0.55618 0.60417,0.60416 1.05416,0.0434 1.64479,-0.19293 1.3125,-0.52522 z m 6.83826,-5.50493 c 0.37335,-0.6041 -0.50159,-0.32492 -1.94431,0.62038 -1.44271,0.94531 -2.62312,1.90782 -2.62312,2.13891 0,0.72338 3.85397,-1.6049 4.56743,-2.75929 z m -0.9624,-4.06084 c 0.48817,-0.78987 0.17496,-0.95961 -0.96412,-0.5225 -1.44429,0.55422 -1.52536,0.34506 -0.56315,-1.45286 1.11662,-2.08642 1.10758,-2.08792 -1.36855,-0.2275 -1.66635,1.25201 -2.11414,2.11633 -1.3509,2.60749 1.68772,1.08606 3.42789,0.92026 4.24672,-0.40463 z m -0.60503,-5.70642 c 0.275,-0.24327 -0.25843,-0.17088 -1.18539,0.16085 -0.92697,0.33174 -1.85353,0.0988 -2.05902,-0.51772 -0.20562,-0.61686 -0.93099,-0.7764 -1.61317,-0.35479 -0.95684,0.59136 -0.97014,1.09068 -0.0583,2.18938 1.14195,1.37597 1.97194,1.12647 4.91588,-1.47772 z m -2,-4.21299 c 2.13482,-1.74618 2.18094,-1.889 0.31574,-0.97776 -3.41803,1.66987 -4.06067,1.21423 -1.31574,-0.93289 1.375,-1.07554 2.05,-1.95122 1.5,-1.94596 -1.79856,0.0172 -4.17497,2.40797 -4.17078,4.19596 0.005,2.23224 0.59331,2.17787 3.67078,-0.33935 z m -5.75,-3.57293 c -0.6875,-0.27741 -1.25,-1.14189 -1.25,-1.92105 0,-0.77917 -0.49814,-1.41667 -1.10699,-1.41667 -0.60884,0 -0.85912,0.64593 -0.55618,1.43539 0.30295,0.78947 0.0136,1.65394 -0.64301,1.92105 -0.6566,0.26712 0.15618,0.48567 1.80618,0.48567 1.65,0 2.4375,-0.22698 1.75,-0.50439 z m 4.75,-1.33772 c 0.825,-0.53316 1.05,-0.96937 0.5,-0.96937 -0.55,0 -1.675,0.43621 -2.5,0.96937 -0.825,0.53316 -1.05,0.96937 -0.5,0.96937 0.55,0 1.675,-0.43621 2.5,-0.96937 z m -0.57143,-2.57143 c 0.86429,-0.86428 1.5359,-2.10178 1.49248,-2.75 -0.0595,-0.88799 -0.19869,-0.88423 -0.56461,0.0152 -0.26711,0.65661 -1.01908,1.06786 -1.67105,0.9139 -0.65196,-0.15396 -0.82404,-0.0832 -0.38239,0.15718 0.44165,0.2404 -0.008,1.05234 -1,1.8043 -0.99165,0.75196 -1.27264,1.3815 -0.62443,1.399 0.64822,0.0175 1.88572,-0.67534 2.75,-1.53963 z m -19.13882,-7.42857 c -0.60166,-2.30075 -2.81958,-2.66762 -3.61386,-0.59777 -0.6665,1.73687 0.12792,2.59777 2.39716,2.59777 1.24738,0 1.5917,-0.56599 1.2167,-2 z m 123.24969,40.6525 c -1.0147,-0.74197 -1.92727,-2.76699 -2.03074,-4.50628 -0.10336,-1.73732 0.003,-2.96769 0.2367,-2.73415 0.23354,0.23354 1.74407,-0.0353 3.35673,-0.59752 5.40798,-1.88523 10.49893,4.18439 6.69787,7.98545 -1.60148,1.60148 -5.9755,1.52337 -8.26056,-0.1475 z m 7.46056,-2.60114 c 0,-2.92955 -6.11533,-3.91469 -6.52638,-1.05136 -0.1509,1.05111 0.79343,1.55354 3.15552,1.67891 1.85397,0.0984 3.37086,-0.184 3.37086,-0.62755 z M 141.57204,203.94445 c 0.048,-1.16495 0.28494,-1.4019 0.60416,-0.60417 0.28887,0.72187 0.25335,1.58437 -0.0789,1.91667 -0.3323,0.33229 -0.56864,-0.25834 -0.52522,-1.3125 z m -20.38007,-3.00298 c 1.10136,-6.88269 2.30253,-9.32598 1.67824,-3.41369 -0.31942,3.025 -0.96861,5.91116 -1.44264,6.41369 -0.4854,0.51459 -0.58831,-0.79582 -0.2356,-3 z m 25.80112,1.58631 c -0.83704,-1.35436 0.29243,-3 2.05902,-3 0.79254,0 1.44098,0.9 1.44098,2 0,2.07031 -2.41251,2.7596 -3.5,1 z m 129.57895,-0.58333 c 0.048,-1.16495 0.28494,-1.4019 0.60416,-0.60417 0.28887,0.72187 0.25335,1.58437 -0.0789,1.91667 -0.3323,0.33229 -0.56864,-0.25834 -0.52522,-1.3125 z m -136,-3 c 0.048,-1.16495 0.28494,-1.4019 0.60416,-0.60417 0.28887,0.72187 0.25335,1.58437 -0.0789,1.91667 -0.3323,0.33229 -0.56864,-0.25834 -0.52522,-1.3125 z m 87.25111,0.16559 c 0.36847,-0.96021 0.66994,-2.15903 0.66994,-2.66405 0,-0.50501 0.40787,-0.91821 0.90638,-0.91821 1.16376,0 0.18526,3.82533 -1.19703,4.67963 -0.65978,0.40777 -0.80057,4.6e-4 -0.37929,-1.09737 z m 36.74889,-5.16559 c 0.048,-1.16495 0.28494,-1.4019 0.60416,-0.60417 0.28887,0.72187 0.25335,1.58437 -0.0789,1.91667 -0.3323,0.33229 -0.56864,-0.25834 -0.52522,-1.3125 z m -141,-4.72404 c -0.12024,-4.27567 2.08162,-17.06188 3.13288,-18.19263 0.5842,-0.62838 0.74829,-0.071 0.44154,1.5 -0.26848,1.375 -1.02367,5.875 -1.6782,10 -1.44634,9.11527 -1.79363,10.34098 -1.89622,6.69263 z m 17.61566,1.66865 c -0.38204,-0.38204 -0.68772,-1.40711 -0.6793,-2.27795 0.0134,-1.38743 0.13525,-1.39774 0.98469,-0.0833 0.79817,1.23508 0.97208,1.2498 0.98469,0.0833 0.008,-0.77916 0.28156,-1.15041 0.60697,-0.825 0.32542,0.32542 0.18799,1.31299 -0.30539,2.19461 -0.49338,0.88162 -1.20962,1.29037 -1.59166,0.90834 z m 122.46328,-1.36128 c 0,-1.375 0.22698,-1.9375 0.50439,-1.25 0.27741,0.6875 0.27741,1.8125 0,2.5 -0.27741,0.6875 -0.50439,0.125 -0.50439,-1.25 z m -1.07894,-4.58333 c 0.048,-1.16495 0.28494,-1.4019 0.60416,-0.60417 0.28887,0.72187 0.25335,1.58437 -0.0789,1.91667 -0.3323,0.33229 -0.56864,-0.25834 -0.52522,-1.3125 z m -24.72181,-5.91667 c 0.825,-0.825 1.74302,-1.5 2.04005,-1.5 0.29702,0 0.28102,0.675 -0.0356,1.5 -0.31659,0.825 -1.23461,1.5 -2.04005,1.5 -1.27011,0 -1.26539,-0.19904 0.0356,-1.5 z m -86.10714,-0.16228 c -1.62283,-0.65483 -1.59968,-1.98956 0.0455,-2.62086 0.75688,-0.29044 1.35467,0.28871 1.43785,1.39301 0.0783,1.03957 0.0579,1.8546 -0.0455,1.81118 -0.10332,-0.0434 -0.75035,-0.30592 -1.43785,-0.58333 z m 94.75,-1.33772 c 0,-0.55 0.42344,-1 0.94098,-1 0.51754,0 1.2191,0.45 1.55902,1 0.33992,0.55 -0.0835,1 -0.94098,1 -0.85746,0 -1.55902,-0.45 -1.55902,-1 z m -103.56886,-1.8295 c 0.002,-1.20567 0.91614,-1.69138 3.28572,-1.74553 3.28407,-0.075 4.48524,1.71406 2.12863,3.17052 -0.7153,0.44208 -0.88306,0.27432 -0.44098,-0.44098 0.85641,-1.3857 -0.87191,-1.50992 -3.25597,-0.23401 -1.30779,0.69991 -1.71935,0.52018 -1.7174,-0.75 z m 101.84003,-0.3288 c 0.42829,-1.19229 -0.1584,-1.87927 -2.08774,-2.44461 -2.45956,-0.7207 -2.30801,-0.83444 1.81657,-1.36326 2.475,-0.31732 4.63742,-0.50483 4.80538,-0.41667 0.16797,0.0881 -0.91755,1.44785 -2.41225,3.02156 -1.4947,1.5737 -2.44958,2.11504 -2.12196,1.20298 z m -103.11328,-4.8417 c 0,-1.375 0.22698,-1.9375 0.50439,-1.25 0.27741,0.6875 0.27741,1.8125 0,2.5 -0.27741,0.6875 -0.50439,0.125 -0.50439,-1.25 z m 126.92106,-0.58333 c 0.048,-1.16495 0.28494,-1.4019 0.60416,-0.60417 0.28887,0.72187 0.25335,1.58437 -0.0789,1.91667 -0.3323,0.33229 -0.56864,-0.25834 -0.52522,-1.3125 z m -22.79294,-3.91667 c 0.008,-2.75 0.20172,-3.75631 0.43157,-2.23625 0.22986,1.52006 0.22371,3.77006 -0.0136,5 -0.23736,1.22994 -0.42542,-0.0137 -0.41792,-2.76375 z m -6.70689,-4.35472 0.48514,-8.35472 -7.16193,0.71925 c -5.16896,0.5191 -6.97025,0.4091 -6.47311,-0.39528 1.03478,-1.67431 13.50245,-1.45618 14.15627,0.24767 0.2875,0.74921 0.0695,4.68671 -0.48439,8.75 l -1.00712,7.3878 0.48514,-8.35472 z m 2.01702,0.35472 c 0.28762,-4.4 0.92981,-8.41116 1.4271,-8.91369 0.92038,-0.93011 0.74917,0.99007 -1.01774,11.41369 -0.84844,5.00529 -0.88527,4.78042 -0.40936,-2.5 z m -102.43825,3.5 c 0,-1.375 0.22698,-1.9375 0.50439,-1.25 0.27741,0.6875 0.27741,1.8125 0,2.5 -0.27741,0.6875 -0.50439,0.125 -0.50439,-1.25 z m 31.34211,0.97247 c 2.75,-0.43849 13.4,-0.83668 23.66667,-0.88486 13.93018,-0.0654 18.79465,-0.40479 19.17105,-1.33761 0.27741,-0.6875 0.5389,-0.8 0.58108,-0.25 0.046,0.59998 2.92314,0.86539 7.19244,0.66349 6.73432,-0.31847 10.45955,0.74767 7.97589,2.28266 -0.59792,0.36954 -1.08713,0.18279 -1.08713,-0.41498 0,-0.72065 -2.10592,-0.91599 -6.25,-0.57974 -11.04076,0.89586 -56.49914,1.35802 -51.25,0.52104 z m -42.33996,-2.65737 c -0.088,-1.7517 -0.5989,-4.3392 -1.13529,-5.75 -0.61533,-1.61845 -0.62236,-2.5651 -0.019,-2.5651 1.34439,0 2.21777,4.09978 1.72802,8.11163 l -0.41365,3.38837 -0.16003,-3.1849 z m 13.03491,0.1849 c 0.0204,-1.65 0.2445,-2.20394 0.49804,-1.23097 0.25354,0.97297 0.23687,2.32297 -0.037,3 -0.27393,0.67703 -0.48137,-0.11903 -0.46099,-1.76903 z m 109.07741,-2.5 c 0,-2.475 0.19502,-3.4875 0.43337,-2.25 0.23836,1.2375 0.23836,3.2625 0,4.5 -0.23835,1.2375 -0.43337,0.225 -0.43337,-2.25 z m -65.02236,2.25543 c 4.8125,-0.18331 12.6875,-0.18331 17.5,0 4.8125,0.18332 0.875,0.3333 -8.75,0.3333 -9.625,0 -13.5625,-0.14998 -8.75,-0.3333 z m 35.5,-0.96116 c 1.2375,-0.23836 3.2625,-0.23836 4.5,0 1.2375,0.23835 0.225,0.43337 -2.25,0.43337 -2.475,0 -3.4875,-0.19502 -2.25,-0.43337 z m -82.67105,-2.8776 c 0.048,-1.16495 0.28494,-1.4019 0.60416,-0.60417 0.28887,0.72187 0.25335,1.58437 -0.0789,1.91667 -0.3323,0.33229 -0.56864,-0.25834 -0.52522,-1.3125 z m 24,-2 c 0.048,-1.16495 0.28494,-1.4019 0.60416,-0.60417 0.28887,0.72187 0.25335,1.58437 -0.0789,1.91667 -0.3323,0.33229 -0.56864,-0.25834 -0.52522,-1.3125 z m 0.73355,-3.09978 c 0.72187,-0.28887 1.58437,-0.25335 1.91667,0.0789 0.33229,0.33229 -0.25834,0.56864 -1.3125,0.52522 -1.16495,-0.048 -1.4019,-0.28494 -0.60417,-0.60416 z m -56,-22 c 0.72187,-0.28887 1.58437,-0.25335 1.91667,0.0789 0.33229,0.3323 -0.25834,0.56864 -1.3125,0.52522 -1.16495,-0.048 -1.4019,-0.28494 -0.60417,-0.60416 z m 94.77455,-0.0632 c -0.28222,-0.28223 -3.53697,-0.44757 -7.23276,-0.36743 -3.69579,0.0801 -6.37493,-0.19899 -5.95365,-0.62029 0.42129,-0.4213 16.47856,-0.78857 35.68283,-0.81616 24.38956,-0.035 34.60033,0.26646 33.86701,1 -1.06607,1.0664 -55.32702,1.84029 -56.36343,0.80388 z m -60.3808,-0.99427 c 3.68844,-0.19186 9.98844,-0.19314 14,-0.003 4.01156,0.1903 0.99375,0.34727 -6.70625,0.34883 -7.7,0.002 -10.98219,-0.15414 -7.29375,-0.34599 z m 33.54375,0.0783 c 0.6875,-0.27741 1.8125,-0.27741 2.5,0 0.6875,0.27741 0.125,0.50439 -1.25,0.50439 -1.375,0 -1.9375,-0.22698 -1.25,-0.50439 z m 10.0625,-0.0208 c 0.72187,-0.28887 1.58437,-0.25335 1.91667,0.0789 0.33229,0.3323 -0.25834,0.56864 -1.3125,0.52522 -1.16495,-0.048 -1.4019,-0.28494 -0.60417,-0.60416 z m 76.6875,-0.3058 c -1.60374,-0.68024 -1.35647,-0.81491 1.24801,-0.67972 1.78641,0.0927 3.24891,0.5061 3.25,0.9186 0.003,0.95374 -1.92797,0.85122 -4.49801,-0.23888 z m 6,-0.0111 c -0.33992,-0.55 -0.14148,-1 0.44098,-1 0.58246,0 1.05902,0.45 1.05902,1 0,0.55 -0.19844,1 -0.44098,1 -0.24254,0 -0.7191,-0.45 -1.05902,-1 z m 2.5,-0.17319 c 0,-0.45475 0.3375,-0.86381 0.75,-0.90904 0.4125,-0.0452 2.02683,-0.29089 3.58739,-0.54591 1.60845,-0.26286 2.58828,-0.0606 2.26224,0.46693 -0.74181,1.20026 -6.59963,2.07722 -6.59963,0.988 z m -137.66254,-2.35204 c -5.98544,-1.36502 -8.78258,-2.84447 -10.78618,-5.70501 -2.54366,-3.63159 -1.75848,-4.16945 1.11005,-0.7604 3.37938,4.01616 6.14319,5.11795 14.83867,5.91539 5.7802,0.53008 6.36178,0.73006 3.33746,1.14759 -2.0144,0.2781 -5.8394,0.009 -8.5,-0.59757 z m 100.41254,-0.2173 c 3.9875,-0.18981 10.5125,-0.18981 14.5,0 3.9875,0.18982 0.725,0.34512 -7.25,0.34512 -7.975,0 -11.2375,-0.1553 -7.25,-0.34512 z m -99.75,-2.1757 c 0,-2.22117 1.27977,-3.91166 2.58276,-3.41166 0.77948,0.29912 1.41724,0.13354 1.41724,-0.36794 0,-0.50148 2.1375,-0.83484 4.75,-0.74079 2.6125,0.094 5.08061,-0.3313 5.48469,-0.9452 0.51683,-0.78522 0.73923,-0.74554 0.75,0.1338 0.0267,2.17965 3.72062,1.34869 5.4003,-1.21482 2.16832,-3.30927 2.05264,-4.18846 -0.9456,-7.1867 -1.40833,-1.40833 -2.32852,-2.79268 -2.04487,-3.07634 0.28366,-0.28365 1.91729,0.88582 3.63029,2.59883 2.37845,2.37844 2.95455,3.64804 2.43755,5.37179 -0.90702,3.02415 -2.07484,4.07348 -7.9544,7.14736 -5.01406,2.62139 -15.50796,3.7661 -15.50796,1.69167 z m 8.72917,-1.68596 c -0.3323,-0.33229 -1.1948,-0.36781 -1.91667,-0.0789 -0.79773,0.31922 -0.56078,0.55618 0.60417,0.60416 1.05416,0.0434 1.64479,-0.19292 1.3125,-0.52522 z m 4,0 c -0.3323,-0.33229 -1.1948,-0.36781 -1.91667,-0.0789 -0.79773,0.31922 -0.56078,0.55618 0.60417,0.60416 1.05416,0.0434 1.64479,-0.19292 1.3125,-0.52522 z m 5.78564,0.50178 c 2.19185,-1.15632 5.28101,-3.29382 6.8648,-4.75 2.61846,-2.4075 2.7749,-2.44529 1.72503,-0.41669 -1.45876,2.81866 -7.93134,7.26908 -10.57197,7.26908 -1.37554,0 -0.75458,-0.65863 1.98214,-2.10239 z m 137.66907,-0.39338 c -0.62755,-1.37733 -0.75313,-2.50423 -0.27907,-2.50423 0.83035,0 2.32641,4.10211 1.71797,4.71056 -0.16385,0.16384 -0.81135,-0.82901 -1.4389,-2.20633 z m -47.11901,0.54951 c -1.09251,-0.6856 -0.61504,-1.15418 2,-1.96273 l 3.43513,-1.06212 -3.22522,0.30873 c -2.55901,0.24495 -3.88499,-0.37199 -6.41923,-2.98666 -3.12052,-3.21955 -3.16357,-3.38763 -1.87084,-7.30464 0.77799,-2.35732 2.13825,-4.26796 3.30136,-4.63712 1.60124,-0.50821 1.71482,-0.8141 0.59606,-1.60527 -1.0112,-0.7151 -0.75239,-0.83831 0.96432,-0.45907 3.12629,0.69062 5.15365,-0.18103 4.48342,-1.92762 -0.29912,-0.77948 -0.0755,-1.41724 0.49692,-1.41724 0.57242,0 0.85452,1.02712 0.62688,2.28248 -0.39075,2.15483 -0.0934,2.28528 5.31622,2.33254 l 5.73011,0.05 -4.42666,-1.1125 c -5.5081,-1.38425 -6.62796,-3.55252 -1.83481,-3.55252 8.17968,0 17.89765,5.71009 19.3126,11.34771 0.69634,2.77444 -0.45589,9.08152 -1.25983,6.89606 -0.25417,-0.69093 -0.80868,-1.04205 -1.23225,-0.78026 -0.42358,0.26178 -0.57727,-0.53294 -0.34155,-1.76605 0.48394,-2.53157 -2.68578,-7.13058 -6.04505,-8.7709 -2.12459,-1.03742 -2.1229,-1.02068 0.0767,0.75999 1.23704,1.00143 2.68515,3.34101 3.21804,5.19908 0.88732,3.09389 0.68815,3.65902 -2.36583,6.713 -1.83409,1.83409 -3.0572,3.64685 -2.71804,4.02836 0.33917,0.38151 -0.0581,0.30059 -0.88273,-0.17982 -0.82467,-0.48041 -2.78798,-0.73831 -4.36292,-0.57311 -1.86507,0.19563 -2.62922,-0.0787 -2.19158,-0.78685 0.81059,-1.31156 -2.62244,-1.48304 -3.9961,-0.1996 -1.62022,1.5138 -4.88187,2.10949 -6.38513,1.16613 z m 19.50568,-5.11229 c 2.5005,-2.07523 1.63349,-5.55512 -2.22899,-8.94642 -3.42327,-3.00567 -4.01845,-3.17697 -9.25879,-2.66477 -8.69904,0.85025 -13.08277,3.12041 -13.08277,6.77504 0,0.98742 0.7875,2.254 1.75,2.8146 0.9625,0.56061 1.3,1.03986 0.75,1.065 -1.26442,0.0578 1.64818,1.98447 3,1.98447 0.55,0 0.325,-0.43621 -0.5,-0.96937 -1.13618,-0.73425 -0.65108,-1.00102 2,-1.09984 4.35398,-0.1623 6.81077,0.0105 9.94785,0.69956 1.93321,0.42465 2.14345,0.72832 1,1.44439 -0.98403,0.61623 -0.38411,0.77486 1.8727,0.49518 1.82631,-0.22633 3.96381,-0.94536 4.75,-1.59784 z m -27.07055,1.05855 c -0.99549,-1.1 -1.39848,-2 -0.89553,-2 0.50294,0 1.4765,0.9 2.16346,2 0.68696,1.1 1.08995,2 0.89553,2 -0.19442,0 -1.16797,-0.9 -2.16346,-2 z m -107.83333,0.33333 c -1.11898,-1.11898 -0.74291,-5.84783 0.58333,-7.3351 1.04675,-1.17384 0.99114,-1.20777 -0.34201,-0.20868 -2.51214,1.88267 -3.07254,0.17051 -0.61547,-1.88042 1.21412,-1.01343 1.73099,-1.85756 1.14861,-1.87586 -1.74422,-0.0548 -4.25775,2.27739 -5.89178,5.46673 -1.25143,2.44256 -1.53817,2.61696 -1.54319,0.93856 -0.008,-2.82473 3.36149,-6.20174 8.06797,-8.0849 2.15923,-0.86395 3.92587,-1.89696 3.92587,-2.29557 0,-0.39862 0.5625,-0.76716 1.25,-0.81899 0.6875,-0.0518 2.375,-0.38511 3.75,-0.74063 1.9118,-0.49431 1.72872,-0.24348 -0.77814,1.06609 -4.10496,2.14443 -3.81185,2.46167 1.39294,1.50766 3.54445,-0.64968 4.05494,-0.52531 3.68292,0.89731 -0.25129,0.96092 -2.30937,2.1537 -4.92162,2.85236 -5.85394,1.5657 -9.78794,5.40109 -8.95283,8.72843 0.62748,2.50005 0.42875,2.96836 -0.7566,1.78301 z m 17.83333,-1.33333 c -0.33992,-0.55 -0.14148,-1 0.44098,-1 0.58246,0 1.05902,0.45 1.05902,1 0,0.55 -0.19844,1 -0.44098,1 -0.24254,0 -0.7191,-0.45 -1.05902,-1 z m 84.53518,-3.93426 c -0.56935,-1.06384 -1.03518,-2.39818 -1.03518,-2.9652 0,-1.3683 5.94582,-8.10054 7.15428,-8.10054 0.5209,0 -0.44984,1.4625 -2.15721,3.25 -2.52481,2.64331 -3.01269,3.85669 -2.61356,6.5 0.5594,3.70467 0.14606,4.10802 -1.34833,1.31574 z m -67.88535,-1.25672 c -0.0824,-1.48004 -0.59468,-2.96592 -1.13838,-3.30194 -0.58903,-0.36404 -0.72792,0.11728 -0.34367,1.19098 0.35467,0.99107 -0.42386,0.4809 -1.73007,-1.13371 -4.38446,-5.41962 -3.2238,-7.55995 1.45266,-2.67878 2.05767,2.14775 2.65521,3.618 2.33693,5.75 l -0.42764,2.86443 -0.14983,-2.69098 z m 121.07337,-8.4912 c -4.15351,-10.916673 -6.50781,-18.366543 -5.97315,-18.901203 0.2496,-0.2496 2.61208,5.41292 5.24995,12.583383 2.63787,7.17046 4.54898,13.28435 4.24691,13.58643 -0.30208,0.30207 -1.88774,-2.9688 -3.52371,-7.26861 z m -131.7232,-0.31782 c 0.56716,-0.91769 -4.18289,-1.55297 -8.75,-1.17023 -0.9625,0.0807 -1.75,-0.35617 -1.75,-0.97072 0,-1.08401 11.2916,-0.4149 13.23155,0.78406 1.17393,0.72553 -0.10629,2.35689 -1.84958,2.35689 -0.825,0 -1.22189,-0.45 -0.88197,-1 z m -18.83333,-6.666673 c -1.44738,-1.44737 -0.58093,-4.54299 1.41786,-5.06569 1.61829,-0.42319 1.78604,-0.7524 0.75,-1.47185 -1.50929,-1.0481 8.41404,-0.37823 10.13278,0.68401 1.57294,0.97213 1.237,3.02533 -0.79605,4.86521 -1.82187,1.648783 -10.13039,2.362533 -11.50459,0.98832 z m 10.08894,-3.08333 c 0.26757,-0.81366 -0.63669,-1.25 -2.59049,-1.25 -3.6468,0 -6.16512,0.88415 -6.16512,2.16449 0,1.40887 8.27584,0.54449 8.75561,-0.91449 z m 49.49439,2.71884 c -2.50692,-1.00766 -2.8881,-2.88137 -1,-4.91554 1,-1.07737 1,-1.20556 0,-0.64099 -1.68895,0.95355 -1.58312,-0.22204 0.17857,-1.98374 0.78572,-0.78571 3.37322,-1.48181 5.75,-1.54688 4.02479,-0.1102 4.1155,-0.17072 1.32143,-0.88169 l -3,-0.76337 2.78212,-0.11831 c 1.53016,-0.0651 4.39762,-0.79332 6.37212,-1.61832 4.48337,-1.87327 5.40995,-1.86312 2.90463,0.0318 -1.06762,0.80751 -1.49055,1.4682 -0.93984,1.4682 0.55071,0 2.43672,-1.40339 4.19113,-3.11866 3.47987,-3.402216 4.24159,-2.807133 1.30155,1.01682 -1.25534,1.63275 -4.04096,2.97081 -8.72777,4.19236 -5.00552,1.30461 -6.0155,1.80992 -3.70133,1.85184 2.36713,0.0429 3.36055,0.61826 3.87704,2.24557 1.36731,4.30803 -5.38488,7.162383 -11.30965,4.78091 z m 7.16821,-1.57583 c 0.86999,-0.33384 1.58179,-1.29135 1.58179,-2.12781 0,-1.22701 -0.81381,-1.39068 -4.21246,-0.84722 -4.79258,0.76637 -5.24661,1.03021 -4.32866,2.51549 0.72251,1.16905 4.46618,1.41625 6.95933,0.45954 z m 5.31096,-8.99718 c -0.3323,-0.33229 -1.1948,-0.36781 -1.91667,-0.079 -0.79773,0.31923 -0.56078,0.55619 0.60417,0.60417 1.05416,0.0434 1.64479,-0.19293 1.3125,-0.52522 z m 43.49334,9.04747 c -2.8251,-1.97878 -2.84511,-4.27743 -0.0462,-5.3128 l 2.17626,-0.80505 -2.11509,-0.55311 c -1.72528,-0.45117 -2.10484,-1.29594 -2.05947,-4.58363 0.0462,-3.350562 0.44427,-4.128063 2.35937,-4.608722 2.83594,-0.711775 5.46267,0.204034 5.46267,1.904562 0,0.69881 0.675,1.83076 1.5,2.51545 0.825,0.68469 1.5,2.12193 1.5,3.19387 0,1.07195 0.675,2.62399 1.5,3.44899 1.90084,1.90084 1.88701,2.82727 -0.0714,4.78571 -2.01294,2.01295 -7.34223,2.02064 -10.20606,0.0147 z m 7.1957,-1.05029 c 3.59099,-1.37799 -0.32196,-3.75395 -4.41821,-2.68276 -3.35241,0.87668 -2.31479,2.3955 2.16821,3.17375 0.36752,0.0638 1.38002,-0.15714 2.25,-0.49099 z m -1.68904,-4.99718 c -0.3323,-0.33229 -1.1948,-0.36781 -1.91667,-0.079 -0.79773,0.31923 -0.56078,0.55619 0.60417,0.60417 1.05416,0.0434 1.64479,-0.19293 1.3125,-0.52522 z m 0.77083,-2.39583 c 0.37124,-0.60067 -0.90301,-0.99388 -3.19098,-0.98469 -2.82752,0.0114 -3.4225,0.2651 -2.30902,0.98469 1.95568,1.26386 4.71889,1.26386 5.5,0 z m -97.84501,4.17126 c -2.96361,-3.27475 -2.11262,-5.95387 2.31226,-7.27959 2.23553,-0.66978 3.69169,-1.63449 3.33596,-2.21008 -0.38817,-0.62807 0.0411,-0.76345 1.11453,-0.35153 0.96021,0.36847 3.28403,0.66994 5.16405,0.66994 2.17343,0 3.41821,0.48317 3.41821,1.32681 0,0.89227 -1.0644,1.22778 -3.25,1.02444 -2.81305,-0.26172 -2.91496,-0.19901 -0.758,0.46639 1.3706,0.42281 3.0352,1.8583 3.69911,3.18997 1.02146,2.04884 1.30546,2.16491 1.84661,0.75469 0.35173,-0.91659 0.36729,-2.10698 0.0346,-2.64531 -0.33271,-0.53834 -0.17998,-1.24142 0.33939,-1.56241 1.22685,-0.75824 2.31578,2.68906 1.51149,4.78501 -1.39876,3.64511 -15.85064,5.05553 -18.76819,1.83167 z m 2.98922,-2.67055 c -0.0793,-1.37461 -0.45515,-2.49961 -0.83519,-2.5 -1.1914,-0.001 -2.01047,2.03193 -1.42902,3.54718 0.90521,2.35894 2.42032,1.65822 2.26421,-1.04718 z m 9.75496,1.19668 c 1.63627,-1.19647 1.6492,-1.41235 0.1587,-2.64936 -2.29051,-1.90096 -10.15066,0.53278 -8.42727,2.60934 1.41952,1.71042 5.95415,1.73236 8.26857,0.04 z m 50.60377,1.61396 c -1.92339,-0.99624 -3.59331,-2.48635 -3.71094,-3.31135 -0.38148,-2.67554 5.30272,-6.10268 11.11714,-6.70278 4.85247,-0.500816 5.68344,-0.29555 7.94046,1.96147 2.63356,2.63357 2.67672,5.64466 0.1114,7.77368 -2.51166,2.08449 -11.65372,2.24948 -15.45806,0.27898 z m 9.55593,-1.79235 c 1.67181,-1.27551 1.73417,-1.6166 0.44944,-2.45839 -1.36375,-0.89356 -5.22026,-0.51792 -7.39341,0.72016 -0.4868,0.27734 0.1882,1.09918 1.5,1.82631 3.03613,1.68291 3.12463,1.68148 5.44397,-0.0881 z m 4.81653,-3.29652 c -0.59381,-0.94736 -2.1587,-1.84821 -3.47753,-2.00188 -2.2995,-0.26793 -2.32003,-0.21797 -0.50055,1.21797 1.04353,0.82355 2.23906,1.28616 2.65674,1.02802 0.41768,-0.25814 0.51517,0.54377 0.21664,1.78203 -0.45045,1.8684 -0.31083,2.03406 0.82078,0.97386 1.01733,-0.95314 1.08942,-1.7149 0.28392,-3 z m -12.38454,-0.71147 c 0.67967,-0.81894 1.60367,-1.2616 2.05335,-0.98369 0.44968,0.27792 1.10025,0.048 1.44571,-0.51101 0.34546,-0.55897 -0.0236,-1.01631 -0.82012,-1.01631 -1.71133,0 -6.69171,3.91806 -5.04224,3.96673 0.62015,0.0183 1.68364,-0.63677 2.3633,-1.45572 z m -33.49086,0.48899 c -1.77225,-0.76156 -1.68684,-0.86743 0.75,-0.92971 1.5125,-0.0387 2.75,0.37971 2.75,0.92971 0,1.17372 -0.76862,1.17372 -3.5,0 z m -51.5,-2.3 c 0,-1.78675 2.06838,-3.699999 4,-3.699999 2.18053,0 3.95903,1.943199 3.31487,3.621859 -0.68943,1.79662 -7.31487,1.8674 -7.31487,0.0781 z m 2.36574,-11.465312 c -0.62385,-0.404078 -1.15813,-2.646455 -1.1873,-4.98306 -0.061,-4.888679 1.52769,-6.251627 7.2872,-6.251627 3.86539,0 5.30774,1.71983 3.98363,4.75 -0.42059,0.9625 -0.68179,2.278616 -0.58044,2.924703 0.43398,2.766653 -6.63786,5.415858 -9.50309,3.559984 z m 5.13426,-2.234687 c 1.77225,-0.761562 1.68684,-0.867433 -0.75,-0.929715 -1.5125,-0.03866 -2.75,0.379715 -2.75,0.929715 0,1.173714 0.76862,1.173714 3.5,0 z m 0.91821,-4.606989 c 0.86999,-0.333844 1.58179,-1.008844 1.58179,-1.5 0,-1.037626 -3.08826,-1.180109 -5.50206,-0.253848 -1.32869,0.509866 -1.39581,0.810206 -0.33179,1.484688 1.60924,1.020096 2.19803,1.057367 4.25206,0.26916 z m 59.15967,2.390632 c -2.21162,-1.23768 -1.96354,-5.023637 0.53751,-8.203214 4.48408,-5.700578 9.01501,-0.691812 5.41734,5.988654 -1.71823,3.190556 -3.21572,3.747459 -5.95485,2.21456 z m 3.59338,-3.438631 c 2.19702,-1.988273 2.39441,-4.345012 0.36392,-4.345012 -1.45709,0 -3.53518,2.900516 -3.53518,4.934259 0,1.517753 1.06086,1.320636 3.17126,-0.589247 z m 32.35739,1.299596 c -2.75334,-2.01329 -1.23545,-4.3494 3.32686,-5.120196 6.18702,-1.045291 10.20954,2.010537 6.94449,5.275588 -1.61854,1.618537 -7.97691,1.522343 -10.27135,-0.155392 z m 7.97135,-1.644608 c -0.33992,-0.55 -2.27898,-0.968372 -4.30902,-0.929715 -2.97467,0.05664 -3.30284,0.237074 -1.69098,0.929715 2.80808,1.206672 6.74576,1.206672 6,0 z"
     id="path8574"
     inkscape:connector-curvature="0" />
</svg>
